<?xml version="1.0" encoding="utf-8"?>
<!-- Generator: Adobe Illustrator 20.1.0, SVG Export Plug-In . SVG Version: 6.00 Build 0)  -->
<svg version="1.1" id="Layer_1" xmlns="http://www.w3.org/2000/svg" xmlns:xlink="http://www.w3.org/1999/xlink" x="0px" y="0px"
	 viewBox="0 0 50 50" style="enable-background:new 0 0 50 50;" xml:space="preserve">
<style type="text/css">
	.st0{fill:#FFFFFF;}
</style>
<g>
	<path class="st0" d="M43.2,10.9L26.1,28c-0.6,0.6-1.6,0.6-2.2,0L6.8,10.9"/>
	<path class="st0" d="M45.8,11.1h-0.2L26.3,30.4c-0.7,0.7-1.9,0.7-2.6,0L4.4,11.1H4.2c-1,0-1.8,0.8-1.8,1.8v24.4
		c0,1,0.8,1.8,1.8,1.8h41.6c1,0,1.8-0.8,1.8-1.8V12.9C47.6,11.9,46.8,11.1,45.8,11.1z M14.8,27.3l-8.5,8.5c-0.4,0.4-1,0.4-1.4,0
		s-0.4-1,0-1.4l8.5-8.5c0.4-0.4,1-0.4,1.4,0C15.2,26.2,15.2,26.9,14.8,27.3z M45.1,35.7c-0.4,0.4-1,0.4-1.4,0l-8.5-8.5
		c-0.4-0.4-0.4-1,0-1.4s1-0.4,1.4,0l8.5,8.5C45.5,34.7,45.5,35.3,45.1,35.7z"/>
</g>
</svg>
