<?xml version="1.0" encoding="utf-8"?>
<!-- Generator: Adobe Illustrator 19.1.0, SVG Export Plug-In . SVG Version: 6.00 Build 0)  -->
<svg version="1.1" id="Layer_1" xmlns="http://www.w3.org/2000/svg" xmlns:xlink="http://www.w3.org/1999/xlink" x="0px" y="0px"
	 viewBox="0 0 50 50" style="enable-background:new 0 0 50 50;" xml:space="preserve">
<style type="text/css">
	.st0{fill:#1ED6B3;}
</style>
<g>
	<path class="st0" d="M44.3,10H12.2c-0.2,0-0.4,0-0.6,0.1l-0.7-3.1c-0.1-0.6-0.7-1.1-1.4-1.1H4.3c-0.8,0-1.4,0.6-1.4,1.4
		c0,0.8,0.6,1.4,1.4,1.4h4.1l6.3,27.2c0.1,0.6,0.7,1.1,1.4,1.1h23.5c0.8,0,1.4-0.6,1.4-1.4s-0.6-1.4-1.4-1.4H17.2l-0.6-2.4l24.9-2.7
		c1.5,0,2.8-1.2,2.8-2.8l2.8-13.4C47.1,11.2,45.8,10,44.3,10z"/>
	<circle class="st0" cx="16.2" cy="41.2" r="2.9"/>
	<circle class="st0" cx="40" cy="41.2" r="2.9"/>
</g>
</svg>
