<?xml version="1.0" encoding="utf-8"?>
<!-- Generator: Adobe Illustrator 19.1.0, SVG Export Plug-In . SVG Version: 6.00 Build 0)  -->
<svg version="1.1" id="Layer_1" xmlns="http://www.w3.org/2000/svg" xmlns:xlink="http://www.w3.org/1999/xlink" x="0px" y="0px"
	 viewBox="0 0 50 50" style="enable-background:new 0 0 50 50;" xml:space="preserve">
<style type="text/css">
	.st0{fill:#9C9792;}
</style>
<g>
	<path class="st0" d="M39.5,6.5H10.2c-2,0-3.7,1.6-3.7,3.7v29.3c0,2,1.6,3.7,3.7,3.7h29.3c2,0,3.7-1.6,3.7-3.7V10.2
		C43.1,8.2,41.5,6.5,39.5,6.5L39.5,6.5z M24.8,17.5c4,0,7.3,3.3,7.3,7.3c0,4-3.3,7.3-7.3,7.3s-7.3-3.3-7.3-7.3
		C17.5,20.8,20.8,17.5,24.8,17.5L24.8,17.5z M11.1,39.5c-0.5,0-0.9-0.4-0.9-0.9V23H14c-0.2,0.6-0.2,1.3-0.2,1.8c0,6,4.9,11,11,11
		c6,0,11-4.9,11-11c0-0.5,0-1.3-0.2-1.8h3.8v15.6c0,0.5-0.4,0.9-0.9,0.9H11.1z M39.5,14.8c0,0.5-0.4,0.9-0.9,0.9h-3.7
		c-0.5,0-0.9-0.4-0.9-0.9v-3.7c0-0.5,0.4-0.9,0.9-0.9h3.7c0.5,0,0.9,0.4,0.9,0.9V14.8z M39.5,14.8"/>
</g>
</svg>
