<?xml version="1.0" encoding="utf-8"?>
<!-- Generator: Adobe Illustrator 19.1.0, SVG Export Plug-In . SVG Version: 6.00 Build 0)  -->
<svg version="1.1" id="Layer_1" xmlns="http://www.w3.org/2000/svg" xmlns:xlink="http://www.w3.org/1999/xlink" x="0px" y="0px"
	 viewBox="-19 21 50 50" style="enable-background:new -19 21 50 50;" xml:space="preserve">
<style type="text/css">
	.st0{fill:#1ED6B3;}
</style>
<g>
	<path class="st0" d="M24.2,31.9L7.1,49c-0.6,0.6-1.6,0.6-2.2,0l-17.1-17.1"/>
	<path class="st0" d="M26.8,32.1h-0.2L7.3,51.4c-0.7,0.7-1.9,0.7-2.6,0l-19.3-19.3h-0.2c-1,0-1.8,0.8-1.8,1.8v24.4
		c0,1,0.8,1.8,1.8,1.8h41.6c1,0,1.8-0.8,1.8-1.8V33.9C28.6,32.9,27.8,32.1,26.8,32.1z M-4.2,48.3l-8.5,8.5c-0.4,0.4-1,0.4-1.4,0
		c-0.4-0.4-0.4-1,0-1.4l8.5-8.5c0.4-0.4,1-0.4,1.4,0C-3.8,47.2-3.8,47.9-4.2,48.3z M26.1,56.7c-0.4,0.4-1,0.4-1.4,0l-8.5-8.5
		c-0.4-0.4-0.4-1,0-1.4c0.4-0.4,1-0.4,1.4,0l8.5,8.5C26.5,55.7,26.5,56.3,26.1,56.7z"/>
</g>
</svg>
