<?xml version="1.0" encoding="utf-8"?>
<!-- Generator: Adobe Illustrator 19.1.0, SVG Export Plug-In . SVG Version: 6.00 Build 0)  -->
<svg version="1.1" id="Layer_1" xmlns="http://www.w3.org/2000/svg" xmlns:xlink="http://www.w3.org/1999/xlink" x="0px" y="0px"
	 viewBox="0 0 50 50" style="enable-background:new 0 0 50 50;" xml:space="preserve">
<style type="text/css">
	.st0{fill-rule:evenodd;clip-rule:evenodd;fill:#FFFFFF;}
</style>
<g id="WA_Logo">
	<g>
		<path class="st0" d="M39.4,10.2c-3.8-3.8-8.9-5.9-14.3-5.9c-11.1,0-20.2,9.1-20.2,20.2c0,3.6,0.9,7,2.7,10.1L4.7,45l10.7-2.8
			c3,1.6,6.3,2.5,9.7,2.5h0c0,0,0,0,0,0c11.1,0,20.2-9.1,20.2-20.2C45.3,19.1,43.2,14,39.4,10.2z M25.1,41.3L25.1,41.3
			c-3,0-6-0.8-8.6-2.3l-0.6-0.4l-6.4,1.7l1.7-6.2l-0.4-0.6c-1.7-2.7-2.6-5.8-2.6-8.9c0-9.3,7.5-16.8,16.8-16.8
			c4.5,0,8.7,1.8,11.9,4.9c3.2,3.2,4.9,7.4,4.9,11.9C41.9,33.7,34.3,41.3,25.1,41.3z M34.3,28.7c-0.5-0.3-3-1.5-3.4-1.6
			c-0.5-0.2-0.8-0.3-1.1,0.3c-0.3,0.5-1.3,1.6-1.6,2c-0.3,0.3-0.6,0.4-1.1,0.1c-0.5-0.3-2.1-0.8-4.1-2.5c-1.5-1.3-2.5-3-2.8-3.5
			c-0.3-0.5,0-0.8,0.2-1c0.2-0.2,0.5-0.6,0.8-0.9c0.3-0.3,0.3-0.5,0.5-0.8c0.2-0.3,0.1-0.6,0-0.9C21.5,19.5,20.5,17,20,16
			c-0.4-1-0.8-0.9-1.1-0.9c-0.3,0-0.6,0-1,0s-0.9,0.1-1.3,0.6c-0.5,0.5-1.8,1.7-1.8,4.2c0,2.5,1.8,4.9,2.1,5.2
			c0.3,0.3,3.6,5.4,8.6,7.6c1.2,0.5,2.1,0.8,2.9,1.1c1.2,0.4,2.3,0.3,3.2,0.2c1-0.1,3-1.2,3.4-2.4c0.4-1.2,0.4-2.2,0.3-2.4
			C35.1,29.1,34.8,28.9,34.3,28.7z"/>
	</g>
</g>
</svg>
