<?xml version="1.0" encoding="utf-8"?>
<!-- Generator: Adobe Illustrator 19.1.0, SVG Export Plug-In . SVG Version: 6.00 Build 0)  -->
<svg version="1.1" id="Layer_1" xmlns="http://www.w3.org/2000/svg" xmlns:xlink="http://www.w3.org/1999/xlink" x="0px" y="0px"
	 viewBox="0 0 100 100" style="enable-background:new 0 0 100 100;" xml:space="preserve">
<style type="text/css">
	.st0{fill:#1ED6B3;}
</style>
<g>
	<path class="st0" d="M88.4,25C88.4,24.9,88.4,24.9,88.4,25c0-0.2-0.1-0.3-0.1-0.4l0,0c0-0.1-0.1-0.2-0.2-0.2c0,0,0,0-0.1-0.1l0,0
		c-0.1-0.1-0.2-0.1-0.3-0.1l0,0l-37.4-12h-0.1c-0.1,0-0.1,0-0.2,0c-0.1,0-0.1,0-0.2,0h-0.1L12.3,24l0,0c-0.1,0-0.2,0.1-0.3,0.1l0,0
		c0,0,0,0-0.1,0.1c-0.1,0.1-0.1,0.2-0.2,0.2l0,0c-0.1,0.1-0.1,0.2-0.1,0.3v0.1v0.1l2.3,47.9c0,0.4,0.3,0.7,0.6,0.9l35.1,13.9l0,0
		c0.1,0,0.2,0.1,0.3,0.1l0,0l0,0c0.1,0,0.2,0,0.3-0.1l0,0l35.1-13.9c0.4-0.1,0.6-0.5,0.6-0.9L88.4,25L88.4,25z M50,39.8L15.5,25.1
		l11.6-3.6l33.8,13.7L50,39.8z M37.1,18.3l34.1,12.5l-7.7,3.3L30.1,20.5L37.1,18.3z M64.5,35.8l8.4-3.6v11.6l-8.4,3.6V35.8z
		 M73.9,29.7L40.2,17.3l9.8-3.1l34.5,10.9L73.9,29.7z M13.7,26.5l35.3,15v43.8l-33.1-13L13.7,26.5z M84.1,72.3L51,85.3V41.5
		l11.5-4.9v12.2c0,0.3,0.2,0.6,0.4,0.8c0.2,0.1,0.4,0.2,0.6,0.2c0.1,0,0.3,0,0.4-0.1l10.4-4.4c0.4-0.2,0.6-0.5,0.6-0.9v-13l11.4-4.8
		L84.1,72.3z"/>
	<path class="st0" d="M76.2,57.4c0.2,0.1,0.4,0.2,0.6,0.2c0.1,0,0.3,0,0.4-0.1l6-2.4c0.4-0.2,0.6-0.5,0.6-0.9v-5.3
		c0-0.3-0.2-0.6-0.4-0.8c-0.3-0.2-0.6-0.2-0.9-0.1l-6,2.4c-0.4,0.2-0.6,0.5-0.6,0.9v5.3C75.8,57,75.9,57.3,76.2,57.4z M77.8,52
		l4-1.6v3.2l-4,1.6V52z"/>
	<path class="st0" d="M37.6,46.6l5.9,2.5c0.1,0.1,0.3,0.1,0.4,0.1c0.4,0,0.8-0.2,0.9-0.6c0.2-0.5,0-1.1-0.5-1.3l-5.9-2.5
		c-0.5-0.2-1.1,0-1.3,0.5C36.9,45.8,37.1,46.4,37.6,46.6z"/>
	<path class="st0" d="M44.3,51.3L36.6,48c-0.5-0.2-1.1,0-1.3,0.5s0,1.1,0.5,1.3l7.7,3.3c0.1,0.1,0.3,0.1,0.4,0.1
		c0.4,0,0.8-0.2,0.9-0.6C45,52.1,44.8,51.5,44.3,51.3z"/>
	<path class="st0" d="M44.3,55l-7.7-3.3c-0.5-0.2-1.1,0-1.3,0.5s0,1.1,0.5,1.3l7.7,3.3c0.1,0.1,0.3,0.1,0.4,0.1
		c0.4,0,0.8-0.2,0.9-0.6C45,55.8,44.8,55.2,44.3,55z"/>
</g>
</svg>
