<?xml version="1.0" encoding="utf-8"?>
<!-- Generator: Adobe Illustrator 16.0.0, SVG Export Plug-In . SVG Version: 6.00 Build 0)  -->
<!DOCTYPE svg PUBLIC "-//W3C//DTD SVG 1.1//EN" "http://www.w3.org/Graphics/SVG/1.1/DTD/svg11.dtd">
<svg version="1.1" id="Layer_1" xmlns="http://www.w3.org/2000/svg" xmlns:xlink="http://www.w3.org/1999/xlink" x="0px" y="0px"
	 width="1200px" height="650px" viewBox="0 0 1200 650" enable-background="new 0 0 1200 650" xml:space="preserve">
<g>
	<path fill="#FFFFFF" d="M850.9,130H433.6c-2.6,0-5.199,0-7.8,1.3L416.7,91c-1.3-7.8-9.101-14.3-18.2-14.3h-67.6
		c-10.4,0-18.2,7.8-18.2,18.2s7.8,18.2,18.2,18.2h53.3L466.1,466.7c1.301,7.8,9.101,14.3,18.2,14.3h305.5c10.4,0,18.2-7.8,18.2-18.2
		c0-10.399-7.8-18.2-18.2-18.2H498.6l-7.8-31.199L814.5,378.3c19.5,0,36.4-15.6,36.4-36.399L887.3,167.7
		C887.3,145.6,870.4,130,850.9,130z"/>
	<circle fill="#FFFFFF" cx="485.6" cy="535.6" r="37.7"/>
	<circle fill="#FFFFFF" cx="795" cy="535.6" r="37.7"/>
</g>
</svg>
