<?xml version="1.0" encoding="utf-8"?>
<!-- Generator: Adobe Illustrator 19.1.0, SVG Export Plug-In . SVG Version: 6.00 Build 0)  -->
<svg version="1.1" id="Layer_1" xmlns="http://www.w3.org/2000/svg" xmlns:xlink="http://www.w3.org/1999/xlink" x="0px" y="0px"
	 viewBox="0 0 100 100" style="enable-background:new 0 0 100 100;" xml:space="preserve">
<style type="text/css">
	.st0{fill:#1ED6B3;}
</style>
<g>
	<g>
		<path class="st0" d="M58.5,90H22.4c-0.4,0-0.7-0.2-0.9-0.4c-0.2-0.3-0.3-0.6-0.3-1l0.6-3.7c-1.4-2.8-0.3-5.4,0.6-6.7
			C22.2,74,20.2,42,26.2,21.3l-2.1-9.9c-0.1-0.3,0-0.7,0.2-1c0.2-0.3,0.6-0.4,0.9-0.4h33.3c0.7,0,1.2,0.5,1.2,1.2
			c0,0.7-0.5,1.2-1.2,1.2H26.7l1.8,8.8c0,0.2,0,0.4,0,0.6c-6.3,21.7-3.7,56.5-3.7,56.8c0,0.3-0.1,0.7-0.3,0.9
			c-0.1,0.1-1.9,2.2-0.4,4.8c0.1,0.2,0.2,0.5,0.1,0.8l-0.5,2.7h34.7c0.7,0,1.2,0.5,1.2,1.2C59.7,89.5,59.2,90,58.5,90z"/>
	</g>
	<g>
		<path class="st0" d="M58.5,22.6H27.4c-0.7,0-1.2-0.5-1.2-1.2s0.5-1.2,1.2-1.2h31.1c0.7,0,1.2,0.5,1.2,1.2S59.2,22.6,58.5,22.6z"/>
	</g>
	<g>
		<path class="st0" d="M58.5,17.1H27.4c-0.7,0-1.2-0.5-1.2-1.2s0.5-1.2,1.2-1.2h31.1c0.7,0,1.2,0.5,1.2,1.2S59.2,17.1,58.5,17.1z"/>
	</g>
	<g>
		<path class="st0" d="M58.5,64.5h-26c-0.6,0-1.1-0.4-1.2-1c-2-17.1,2.2-32.2,2.4-32.8c0.1-0.5,0.6-0.9,1.1-0.9h23.7
			c0.7,0,1.2,0.5,1.2,1.2c0,0.7-0.5,1.2-1.2,1.2H35.8c-0.8,3.4-3.6,16.1-2.2,30h25c0.7,0,1.2,0.5,1.2,1.2
			C59.7,63.9,59.2,64.5,58.5,64.5z"/>
	</g>
	<g>
		<path class="st0" d="M58.5,86H23.1c-0.7,0-1.2-0.5-1.2-1.2c0-0.7,0.5-1.2,1.2-1.2h35.4c0.7,0,1.2,0.5,1.2,1.2
			C59.7,85.4,59.2,86,58.5,86z"/>
	</g>
	<g>
		<path class="st0" d="M77.6,90H41.5c-0.7,0-1.2-0.5-1.2-1.2c0-0.7,0.5-1.2,1.2-1.2h34.7L75.7,85c0-0.3,0-0.5,0.1-0.8
			c1.5-2.6-0.4-4.7-0.4-4.8c-0.2-0.2-0.3-0.6-0.3-0.9c0-0.3,2.7-35.1-3.7-56.8c-0.1-0.2-0.1-0.4,0-0.6l1.8-8.8H41.5
			c-0.7,0-1.2-0.5-1.2-1.2c0-0.7,0.5-1.2,1.2-1.2h33.3c0.4,0,0.7,0.2,0.9,0.4c0.2,0.3,0.3,0.6,0.2,1l-2.1,9.9
			c6,20.7,4,52.7,3.7,56.9c1,1.3,2,3.9,0.6,6.7l0.6,3.7c0.1,0.3,0,0.7-0.3,1C78.3,89.9,77.9,90,77.6,90z"/>
	</g>
	<g>
		<path class="st0" d="M72.6,22.6H41.5c-0.7,0-1.2-0.5-1.2-1.2s0.5-1.2,1.2-1.2h31.1c0.7,0,1.2,0.5,1.2,1.2S73.2,22.6,72.6,22.6z"/>
	</g>
	<g>
		<path class="st0" d="M72.6,17.1H41.5c-0.7,0-1.2-0.5-1.2-1.2s0.5-1.2,1.2-1.2h31.1c0.7,0,1.2,0.5,1.2,1.2S73.2,17.1,72.6,17.1z"/>
	</g>
	<g>
		<path class="st0" d="M67.5,64.5h-26c-0.7,0-1.2-0.5-1.2-1.2c0-0.7,0.5-1.2,1.2-1.2h25c1.5-13.9-1.4-26.6-2.2-30H41.5
			c-0.7,0-1.2-0.5-1.2-1.2c0-0.7,0.5-1.2,1.2-1.2h23.7c0.5,0,1,0.4,1.1,0.9c0.2,0.6,4.4,15.8,2.4,32.8C68.6,64,68.1,64.5,67.5,64.5z
			"/>
	</g>
	<g>
		<path class="st0" d="M76.9,86H41.5c-0.7,0-1.2-0.5-1.2-1.2c0-0.7,0.5-1.2,1.2-1.2h35.4c0.7,0,1.2,0.5,1.2,1.2
			C78.1,85.4,77.5,86,76.9,86z"/>
	</g>
	<g>
		<path class="st0" d="M38.2,53c-0.3,0-0.6-0.1-0.8-0.3c-0.5-0.5-0.5-1.2,0-1.7l13.6-13.6c0.5-0.5,1.2-0.5,1.7,0s0.5,1.2,0,1.7
			L39,52.7C38.8,52.9,38.5,53,38.2,53z"/>
	</g>
	<g>
		<path class="st0" d="M42.2,60c-0.3,0-0.6-0.1-0.8-0.3c-0.5-0.5-0.5-1.2,0-1.7l20.5-20.5c0.5-0.5,1.2-0.5,1.7,0s0.5,1.2,0,1.7
			L43.1,59.7C42.8,59.9,42.5,60,42.2,60z"/>
	</g>
</g>
</svg>
