<?xml version="1.0" encoding="utf-8"?>
<!-- Generator: Adobe Illustrator 19.1.0, SVG Export Plug-In . SVG Version: 6.00 Build 0)  -->
<svg version="1.1" id="Layer_1" xmlns="http://www.w3.org/2000/svg" xmlns:xlink="http://www.w3.org/1999/xlink" x="0px" y="0px"
	 viewBox="0 0 100 100" style="enable-background:new 0 0 100 100;" xml:space="preserve">
<style type="text/css">
	.st0{fill:#1ED6B3;}
</style>
<g>
	<path class="st0" d="M81.1,78.3c0.3-0.9,0.6-1.8,1-2.8c1.6-4.2,3.3-8.9,1-16.9c-0.4-1.3-0.8-2.5-1.1-3.6c-2-6.6-2.7-8.8-1.7-14.1
		c0.4-2.1,1.1-4,1.8-5.6c1.2-3.2,2.4-6.2-0.5-8.5c-1.2-1.3-6-2.1-14.4-2.2c-1.7-1.2-3.5-2.4-5.1-2.8c-1.5-0.3-2.1-0.2-3.2,0.2
		c-0.5,0.2-1,0.4-1.9,0.6c-1.6,0.4-3.8-0.7-6-1.7c-1-0.5-2.1-1-3-1.3c-2.3-0.8-3.9-0.3-4.8,0.2c-2.2-2.5-5-4.6-8-3.9L29.5,5.1
		c-0.4-0.7-1-1.2-1.7-1.5c-0.8-0.2-1.6-0.2-2.3,0.2c-1.5,0.8-2.1,2.6-1.3,4L29.9,19c0,0,0.1,0.1,0.1,0.1c-1.5,2.1-1.3,4.4-1.2,5.4
		c0,0.1,0.1,0.3,0.1,0.4c-1.4,0.3-4.6,0.9-8,1c-2.4,0.1-4,0.8-4.8,2.2c-0.8,1.4-0.6,3.2,0.6,5.3c0.5,0.9,5,9.3,1.5,16.9
		c-3.1,6.7-3.9,12.7-2.6,20.1c0.2,1.3,0.5,2.5,0.7,3.7c0.8,4.3,1.5,7.5,0.3,10.3l-0.2,0.4c-1.4,3.3-2.9,7.1-1.6,9.3
		c0.4,0.6,1.1,1.3,2.6,1.5c2,0.2,3.7-0.6,5.3-1.4c2.1-1,4.1-1.9,6.9-1.1l0.2,0c5.3,1.5,8.5,2.5,18.6,2.5c9.6,0,19-2.3,20.4-2.6
		c2.4,0.1,6.6,0.7,7.9,1.7c1.1,0.8,2.1,1.4,3.1,1.4c0.1,0,0.3,0,0.4,0c0.9-0.1,1.7-0.7,2.6-1.9c1-1.4,0.3-3.7-0.6-6.7
		C81.4,84.4,80.3,80.8,81.1,78.3z M47.2,21.5c0.9,0.3,1.8,0.8,2.9,1.2c2.5,1.2,5.1,2.4,7.4,1.8c1-0.2,1.6-0.5,2.1-0.7
		c0.9-0.3,1.1-0.4,2.1-0.2c1.3,0.3,2.8,1.3,4.3,2.4c0.1,0.2,0.4,0.4,0.6,0.5c0.9,0.7,1.7,1.3,2.5,1.7c-4.5,1-9,1.6-13.4,1.8
		c0.2,0,0.3,0,0.4-0.1c0.5-0.1,0.9-0.6,0.8-1.2c-0.1-0.5-0.6-0.9-1.2-0.8c-3.1,0.7-5.4-0.1-8-1.3c-0.1-0.3-0.6-1.1-1.2-2.3
		c0.2,0,0.4-0.1,0.4-0.2c0-0.1-0.2-0.2-0.4-0.2c-0.1,0-0.1,0-0.2,0c-0.3-0.4-0.5-0.9-0.9-1.4c0.1,0,0.1-0.1,0.1-0.2
		c0-0.1-0.2-0.2-0.4-0.2c0,0,0,0,0,0c-0.2-0.3-0.4-0.6-0.7-0.9C44.9,21.2,45.8,21,47.2,21.5z M33.8,28.8c-1.4-1.8-2.9-4-3-4.7
		c-0.3-1.9,0.1-4.4,3.2-5.7l5.9,11.2C37.6,29.4,35.6,29.1,33.8,28.8z M42.2,29.8l-1.8-3.4c0.1,0,0.1-0.1,0.2-0.1
		c0.2-0.1,1-0.2,3.3,0.9l0.8,0.4c2.3,1.2,4.5,2.2,6.9,2.6C48.3,30.2,45.2,30.1,42.2,29.8z M26,6.9c-0.2-0.5-0.1-1.1,0.4-1.3
		c0.2-0.1,0.5-0.1,0.8-0.1c0.3,0.1,0.5,0.3,0.6,0.5l5.4,10.6c-0.7,0.3-1.2,0.6-1.7,1L26,6.9z M30.9,28.3c-2.3-0.4-3.9-0.8-4.5-1
		c1.6-0.2,2.9-0.5,3.5-0.6C30.2,27.3,30.5,27.8,30.9,28.3z M81.2,92.8c-0.5,0.7-1,1.1-1.3,1.1c-0.4,0.1-1-0.3-2-1
		c-2.2-1.7-8.4-2.1-9.1-2.1c-0.1,0-0.2,0-0.3,0c-0.1,0-10.1,2.6-20,2.6c-9.9,0-12.8-0.8-18.1-2.4l-0.2,0c-3.5-1-6,0.2-8.3,1.2
		c-1.5,0.7-2.9,1.3-4.3,1.2c-0.7-0.1-0.9-0.3-1.1-0.5c-0.8-1.3,0.8-5.2,1.7-7.5l0.2-0.4c1.4-3.3,0.7-6.9-0.2-11.4
		c-0.2-1.1-0.5-2.3-0.7-3.6c-1.2-7-0.5-12.7,2.4-19c1.4-3.1,1.7-6.2,1.4-9.1c4,0.8,16,3.1,29.2,3.1c6.8,0,13.8-0.6,20.3-2.3
		c0.5-0.1,0.9-0.7,0.7-1.2c-0.1-0.5-0.7-0.9-1.2-0.7c-19.6,5.1-45-0.1-49.3-1c-0.7-3.8-2.2-6.6-2.7-7.5c-0.8-1.4-1-2.6-0.6-3.3
		c0.5-0.9,2-1.1,3.1-1.1c1.5-0.1,2.9-0.2,4.2-0.3c-0.1,0.1-0.2,0.3-0.3,0.5c-0.1,0.5,0.2,1.1,0.7,1.2c0.1,0,3,0.8,7.6,1.5
		c0,0,0,0,0.1,0c0,0,0,0,0,0c2.3,0.4,5.1,0.7,8.1,1c0.1,0,0.2,0,0.3,0c0,0,0.1,0,0.1,0c3,0.3,6.2,0.4,9.5,0.4c7.1,0,14.9-0.8,22.2-3
		c0.5-0.2,0.8-0.7,0.7-1.3c-0.2-0.5-0.7-0.8-1.3-0.7c-0.2,0.1-0.5,0.1-0.7,0.2c-0.2-0.1-0.4-0.2-0.6-0.3c-0.3,0-0.8-0.2-1.3-0.5
		c7.8,0.3,9.5,1.2,9.8,1.4c0.1,0.1,0.1,0.2,0.2,0.2c1.7,1.3,1.2,2.9-0.1,6.3c-0.7,1.7-1.4,3.7-1.9,6c-1.1,5.8-0.3,8.5,1.7,15.1
		c0.3,1.1,0.7,2.3,1.1,3.6c2.2,7.3,0.6,11.5-0.9,15.6c-0.4,0.9-0.7,1.9-1,2.9c-0.9,3,0.2,6.8,1.2,10.1
		C80.9,89.7,81.6,92.3,81.2,92.8z"/>
	<ellipse class="st0" cx="46.2" cy="21.8" rx="0.5" ry="0.3"/>
	<ellipse class="st0" cx="48.1" cy="22.6" rx="0.5" ry="0.3"/>
	<ellipse class="st0" cx="51.3" cy="23.7" rx="0.4" ry="0.3"/>
	<ellipse class="st0" cx="46.5" cy="22.9" rx="0.4" ry="0.2"/>
	<ellipse class="st0" cx="49.8" cy="23.9" rx="0.4" ry="0.2"/>
	<ellipse class="st0" cx="48.1" cy="23.9" rx="0.4" ry="0.2"/>
	<ellipse class="st0" cx="49.4" cy="24.8" rx="0.4" ry="0.2"/>
	<ellipse class="st0" cx="47.1" cy="23.7" rx="0.4" ry="0.2"/>
	<ellipse class="st0" cx="47.6" cy="25" rx="0.4" ry="0.2"/>
	<ellipse class="st0" cx="43.3" cy="29.1" rx="0.4" ry="0.3"/>
	<ellipse class="st0" cx="42.6" cy="27.2" rx="0.4" ry="0.2"/>
	<ellipse class="st0" cx="44" cy="28" rx="0.4" ry="0.2"/>
	<ellipse class="st0" cx="41.6" cy="26.9" rx="0.4" ry="0.2"/>
	<ellipse class="st0" cx="42.1" cy="28.2" rx="0.4" ry="0.2"/>
	<path class="st0" d="M27.5,58.2c-0.2-1.1-0.8-2.1-2.1-1.6c0,0-0.6,2.9,2.1,3.4c2.7-0.5,2.1-3.4,2.1-3.4
		C28.2,56.1,27.7,57.1,27.5,58.2z"/>
	<path class="st0" d="M27.5,57.5c0.3-1.3,1.4-1.2,1.4-1.2c-0.1-3.8-1.4-4.2-1.4-4.2s-1.3,0.4-1.4,4.2C26.1,56.2,27.2,56.2,27.5,57.5
		z"/>
	<path class="st0" d="M59.5,57.4c0.6-0.9,0.9-2-0.3-2.6c0,0-2.5,1.6-0.9,3.9c2.2,1.5,3.9-0.9,3.9-0.9C61.5,56.4,60.5,56.7,59.5,57.4
		z"/>
	<path class="st0" d="M60,55c0,0,0.8,0.8,0.1,1.9c1.1-0.7,1.9,0.1,1.9,0.1c2.6-2.8,2-4,2-4S62.7,52.4,60,55z"/>
	<path class="st0" d="M69.3,67.4c1.1-0.2,2.1-0.8,1.6-2.1c0,0-2.9-0.6-3.4,2.1c0.5,2.7,3.4,2.1,3.4,2.1
		C71.3,68.1,70.4,67.6,69.3,67.4z"/>
	<path class="st0" d="M75.5,67.4c0,0-0.4-1.3-4.2-1.4c0,0,0,1.1-1.2,1.4c1.3,0.3,1.2,1.4,1.2,1.4C75.1,68.6,75.5,67.4,75.5,67.4z"/>
	<path class="st0" d="M73.2,83.2c0.9,0.6,2,0.9,2.6-0.3c0,0-1.6-2.5-3.9-0.9c-1.5,2.2,0.9,3.9,0.9,3.9
		C74.2,85.2,73.9,84.1,73.2,83.2z"/>
	<path class="st0" d="M73.8,83.7c0.7,1.1-0.1,1.9-0.1,1.9c2.8,2.6,4,2,4,2s0.6-1.2-2-4C75.6,83.6,74.9,84.5,73.8,83.7z"/>
	<path class="st0" d="M70.3,51.5c1.3-0.6,1-1.6,0.3-2.6c0.9,0.6,2,0.9,2.6-0.3c0,0-1.6-2.5-3.9-0.9C67.8,49.9,70.3,51.5,70.3,51.5z"
		/>
	<path class="st0" d="M71.2,49.5c0.7,1.1-0.1,1.9-0.1,1.9c2.8,2.6,4,2,4,2s0.6-1.2-2-4C73,49.4,72.2,50.2,71.2,49.5z"/>
	<path class="st0" d="M41.9,54.2c1.3-0.6,1-1.6,0.3-2.6c0.9,0.6,2,0.9,2.6-0.3c0,0-1.6-2.5-3.9-0.9C39.4,52.5,41.9,54.2,41.9,54.2z"
		/>
	<path class="st0" d="M42.8,52.1c0.7,1.1-0.1,1.9-0.1,1.9c2.8,2.6,4,2,4,2s0.6-1.2-2-4C44.6,52,43.9,52.8,42.8,52.1z"/>
	<path class="st0" d="M60,79.6c-2.7,0.5-2.1,3.4-2.1,3.4c1.3,0.5,1.9-0.5,2.1-1.6c0.2,1.1,0.8,2.1,2.1,1.6C62,83,62.6,80.1,60,79.6z
		"/>
	<path class="st0" d="M60,82.2c-0.3,1.3-1.4,1.2-1.4,1.2c0.1,3.8,1.4,4.2,1.4,4.2s1.3-0.4,1.4-4.2C61.3,83.4,60.2,83.5,60,82.2z"/>
	<path class="st0" d="M52.6,69.9c0.6,1.3,1.6,1,2.6,0.3c-0.6,0.9-0.9,2,0.3,2.6c0,0,2.5-1.6,0.9-3.9C54.2,67.5,52.6,69.9,52.6,69.9z
		"/>
	<path class="st0" d="M54.7,70.8c-1.1,0.7-1.9-0.1-1.9-0.1c-2.6,2.8-2,4-2,4s1.2,0.6,4-2C54.8,72.7,54,71.9,54.7,70.8z"/>
	<path class="st0" d="M23.6,76.2c0.6,1.3,1.6,1,2.6,0.3c-0.6,0.9-0.9,2,0.3,2.6c0,0,2.5-1.6,0.9-3.9C25.2,73.7,23.6,76.2,23.6,76.2z
		"/>
	<path class="st0" d="M25.7,77.1c-1.1,0.7-1.9-0.1-1.9-0.1c-2.6,2.8-2,4-2,4s1.2,0.6,4-2C25.7,78.9,24.9,78.1,25.7,77.1z"/>
	<path class="st0" d="M40.4,84.9c-0.5,1.3,0.5,1.9,1.6,2.1c-1.1,0.2-2.1,0.8-1.6,2.1c0,0,2.9,0.6,3.4-2.1
		C43.3,84.3,40.4,84.9,40.4,84.9z"/>
	<path class="st0" d="M41.3,86.9C40,86.7,40,85.6,40,85.6c-3.8,0.1-4.2,1.4-4.2,1.4s0.4,1.3,4.2,1.4C40,88.3,40,87.2,41.3,86.9z"/>
	<path class="st0" d="M39.5,69.1c-0.9-0.6-2-0.9-2.6,0.3c0,0,1.6,2.5,3.9,0.9c1.5-2.2-0.9-3.9-0.9-3.9
		C38.6,67.1,38.9,68.2,39.5,69.1z"/>
	<path class="st0" d="M39,68.6c-0.7-1.1,0.1-1.9,0.1-1.9c-2.8-2.6-4-2-4-2s-0.6,1.2,2,4C37.1,68.7,37.9,67.9,39,68.6z"/>
</g>
</svg>
