<?xml version="1.0" encoding="utf-8"?>
<!-- Generator: Adobe Illustrator 19.1.0, SVG Export Plug-In . SVG Version: 6.00 Build 0)  -->
<svg version="1.1" id="Layer_1" xmlns="http://www.w3.org/2000/svg" xmlns:xlink="http://www.w3.org/1999/xlink" x="0px" y="0px"
	 viewBox="32 -29 153 149" style="enable-background:new 32 -29 153 149;" xml:space="preserve">
<style type="text/css">
	.st0{fill:#9C9792;}
</style>
<g>
	<g>
		<g>
			<path class="st0" d="M72.7-22.3c0.7,2.8,1.6,5.6,2.8,8.4c9.4,22.1,31.2,34.4,51.1,30.1c-0.7-2.8-1.6-5.6-2.8-8.4
				C114.5-14.3,92.7-26.6,72.7-22.3z"/>
			<path class="st0" d="M143.9-28c1,1.4,1.9,3,2.6,4.7c5.6,13.2-1,29-15,37.4c-1-1.4-1.9-3-2.6-4.7C123.4-3.8,130-19.6,143.9-28z"/>
			<g>
				<path class="st0" d="M66.2,1.1c1.1,0,1.7,0.7,1.7,2c-0.1,1.1-0.1,2.2,0,3.2c0,1,0,2.1-0.1,3.2c-0.3,2.6-0.5,5.1-0.7,7.6
					c-0.2,2.5-0.5,5.1-0.8,7.6c-0.2,1.7-0.4,3.2-0.5,4.6c-0.1,1.4-0.3,2.8-0.4,4.3c-0.2,1.5-0.3,3-0.5,4.7c-0.2,1.7-0.5,3.6-0.8,5.8
					c-0.5,3.1-1.3,6.2-2.5,9.3c-1.2,3-2.8,5.7-4.8,8s-4.6,4-7.6,5.1s-6.6,1.4-10.8,0.6c-0.9-0.1-1.8-0.4-2.5-0.8
					c-1-0.3-1.5-0.8-1.8-1.3c-0.3-0.5-0.4-1.1-0.2-1.7c0.2-0.6,0.7-1.2,1.7-1.8c2,0.2,3.6,0.2,4.9,0s2.4-0.6,3.4-1.1
					c0.9-0.5,1.8-1.1,2.5-1.8c0.7-0.7,1.4-1.4,2.2-2.2c1.6-1.6,2.9-3.3,3.9-5.2c0.9-1.9,1.7-3.7,2.2-5.5s0.9-3.5,1.2-5
					c0.3-1.5,0.5-2.8,0.7-3.7c0.1-1.5,0.2-3,0.3-4.5c0.2-1.5,0.3-3,0.3-4.5v-3.4c-0.6,1.3-1.1,2.3-1.5,3.1s-0.7,1.5-0.9,2.2
					c-0.5,1.8-0.9,3.4-1.4,4.7c-0.5,1.3-1.3,2.6-2.3,3.9c-1,1.8-2.1,3.4-3,4.6c-1,1.2-2.3,2.1-3.9,2.7c-1.2,0.5-2.5,0.4-3.9-0.1
					s-2.5-1.3-3.3-2.4c-2.2-2.9-3.4-5.9-3.7-9.1c-0.3-3.2-0.3-6.5,0-9.8c0.1-1.1,0.3-2.2,0.5-3.2s0.4-2.1,0.6-3.2l2-10.9
					c0.1-0.3,0.1-0.7,0.2-1c0.1-0.3,0.2-0.7,0.2-1c0.2-0.9,0.5-1.9,0.9-3C38.1,1,38.6,0,39.3-1c0.6-1,1.3-2,2.1-2.9
					c0.8-0.9,1.6-1.7,2.4-2.3C45.1-7,46.5-7.6,47.9-8c1.4-0.3,2.7-0.5,3.9-0.5c1.2,0,2.2,0,3.1,0.1c0.9,0.1,1.5,0.2,1.8,0.2
					c1,0,1.9,0.2,2.5,0.5c0.6,0.4,1.1,0.9,1.5,1.6c0.4,0.7,0.8,1.5,1.1,2.6c0.3,1,0.8,2.1,1.3,3.4c-0.3,0.3-0.6,0.6-0.8,0.8
					c-0.2,0.2-0.4,0.3-0.6,0.4c-0.1,0-0.1,0-0.1,0s0,0-0.1,0c0.9,0,1.7,0,2.7,0C64.8,1,65.6,1,66.2,1.1z M58.8,7.1
					c0.1-1,0.3-1.9,0.6-2.9c0.3-0.9,0.5-2,0.8-3.1C60.1,1.1,60,1,60,0.9c-0.9-2.5-2-4.1-3.2-4.9c-1.2-0.8-2.5-1.1-3.7-0.9
					c-1.2,0.2-2.3,0.7-3.2,1.5c-0.9,0.8-1.4,1.6-1.6,2.2c-0.5,2.2-1,4.5-1.5,6.7c-0.5,2.3-0.9,4.5-1.2,6.8c-0.3,1.6-0.4,3.2-0.4,4.8
					S45.1,20.3,45,22c-0.1,0.9-0.2,1.7-0.3,2.5c-0.1,0.8-0.3,1.6-0.4,2.5c-0.1,1.4-0.1,2.9,0,4.3l1,8.5c0.3-0.5,0.6-0.8,0.7-1
					c0.2-0.2,0.3-0.4,0.4-0.6c1.7-3.9,3.4-7.7,5.1-11.5s3.4-7.6,5.1-11.5c0.7-1.3,1.1-2.6,1.4-4C58.3,9.9,58.5,8.5,58.8,7.1z"/>
				<path class="st0" d="M93.1,19.4c2.3-0.7,4.2-0.2,5.6,1.7c0.6,0.7,0.9,1.5,0.9,2.4s-0.1,1.7-0.5,2.7c-0.6,1.5-1.2,3-1.8,4.6
					c-0.6,1.6-1.1,3.1-1.7,4.7c-0.2,0.5-0.6,1.3-1.1,2.3c-0.6,1-0.9,1.7-1.1,2.3v2.1c-0.4,0-0.8,0-1.2,0s-0.8-0.1-1.1-0.2
					c-1.7-0.5-2.8-1.2-3.2-2c-0.4-0.8-0.4-2.1,0.1-3.8c0.5-1.6,1.1-3.1,1.6-4.7c0.6-1.6,1.1-3.1,1.6-4.7l0.9-2.8
					c-0.7,0.2-1.3,0.5-1.6,0.9c-0.4,0.4-0.7,0.8-0.9,1.3c-1.8,2.8-3.5,5.7-4.9,8.7c-1.4,3-2.6,6.1-3.5,9.4c-0.5,1.8-1.1,3.6-1.7,5.4
					c-0.6,1.7-1.3,3.5-1.9,5.3c-0.3,0.7-0.5,1.5-0.4,2.2c0,0.8,0.3,1.5,0.8,2.2c-1.1,0.7-2.3,1.1-3.4,1.2c-1.2,0.1-2.3-0.1-3.2-0.6
					c-1-0.5-1.8-1.1-2.4-2.1c-0.6-0.9-1-2-1-3.3c-0.1-1,0-2.1,0.2-3.1c0.2-1,0.4-2,0.5-3.1l0.4-3.4c0.2-1.4,0.4-2.7,0.5-3.8
					c0.1-1.1,0.3-2.1,0.4-3.2c0.1-1,0.3-2.1,0.4-3.3c0.2-1.1,0.4-2.5,0.6-4.1c0.1-2.1,0.3-4.2,0.8-6.2c0.5-2.1,1-4.1,1.4-6.2
					c0.3-1.2,0.7-2,1.2-2.3s1.3-0.3,2.7-0.1c1.1,0.2,1.9,0.4,2.5,0.7s1.1,0.7,1.7,1.3c-1,3.4-1.8,6.8-2.4,10.3
					c-0.6,3.4-0.6,7-0.1,10.7l4-6.6c1.1-1.8,2.2-3.7,3.2-5.5s2.4-3.4,4.1-4.8c0.5-0.3,0.9-0.7,1.4-1C92,19.7,92.6,19.5,93.1,19.4z"
					/>
				<path class="st0" d="M122,21.9c1.5,0.5,2.1,1.3,1.8,2.5c-0.1,0.3-0.2,0.6-0.3,0.9c-0.1,0.3-0.2,0.6-0.4,0.9
					c-1.4,2.5-3.1,4.9-5,7.2s-4,4.5-6.4,6.6c-0.9,0.8-1.7,1.6-2.5,2.5s-1.5,1.7-2.1,2.7c-0.4,0.7-0.6,1.4-0.7,2.1
					c-0.1,0.8-0.1,1.5-0.1,2.2c0,1.1,0.4,2.3,1.3,3.6c0.9,1.3,1.9,2.3,3,3c0.5-0.4,1.2-0.9,2.1-1.5s1.6-1.2,2.1-1.6
					c2.1-1.9,4.2-3.6,6.3-5.1c2.1-1.5,3.7-2.8,4.7-3.9c-0.1,0.7-0.3,1.4-0.5,2.2c-0.1,0.6-0.3,1.2-0.5,2c-0.2,0.7-0.5,1.3-0.8,1.9
					c-1,1.7-2.3,3.2-3.8,4.4c-1.5,1.2-3.2,2.5-5.1,3.9c-1.1,0.8-2.2,1.2-3.4,1.2c-1.1,0-2.5-0.2-4-0.6c-2.2-0.6-4.3-1.7-6.1-3.2
					c-1.8-1.6-3.1-3.3-3.9-5.3c-0.1-0.3-0.2-0.5-0.2-0.8s-0.1-0.7-0.2-1.1c-0.1-0.7-0.1-1.3-0.2-2s-0.1-1.3,0-2.1
					c0-0.7,0.1-1.5,0.2-2.5c0.1-0.9,0.4-2,0.8-3.2c0.5-2,1.2-4,2.2-6c0.9-2,1.8-3.9,2.7-5.9c0.3-0.7,0.7-1.4,1.1-2.2
					c0.4-0.7,0.9-1.4,1.3-2.2c0.3-0.4,0.6-0.8,0.9-1.1c0.3-0.4,0.7-0.7,1-1c1.2-1.3,3-1.8,5.2-1.4c0.5,0.1,1.1,0.2,1.7,0.2
					s1.2,0.1,1.8,0.2c0.8,0.1,1.4,0.3,1.9,0.6C118.9,20.8,120.4,21.5,122,21.9z M108.9,34.9c4.6-4.6,7.6-8.5,8.8-11.5
					c-1.3-0.4-2.1-0.6-2.5-0.5c-0.4,0-0.9,0.4-1.5,1.1c-1.4,1.5-2.6,3.1-3.4,4.8c-0.9,1.7-1.5,3.5-1.9,5.3c0,0.1,0,0.3,0.1,0.4
					C108.6,34.6,108.8,34.7,108.9,34.9z"/>
				<path class="st0" d="M148.1,21.9c1.5,0.5,2.1,1.3,1.8,2.5c-0.1,0.3-0.2,0.6-0.3,0.9c-0.1,0.3-0.2,0.6-0.4,0.9
					c-1.4,2.5-3.1,4.9-5,7.2s-4,4.5-6.4,6.6c-0.9,0.8-1.7,1.6-2.5,2.5c-0.8,0.9-1.5,1.7-2.1,2.7c-0.4,0.7-0.6,1.4-0.7,2.1
					c-0.1,0.8-0.1,1.5-0.1,2.2c0,1.1,0.4,2.3,1.3,3.6c0.9,1.3,1.9,2.3,3,3c0.5-0.4,1.2-0.9,2.1-1.5s1.6-1.2,2.1-1.6
					c2.1-1.9,4.2-3.6,6.3-5.1c2.1-1.5,3.7-2.8,4.7-3.9c-0.1,0.7-0.3,1.4-0.5,2.2c-0.1,0.6-0.3,1.2-0.5,2c-0.2,0.7-0.5,1.3-0.8,1.9
					c-1,1.7-2.3,3.2-3.8,4.4c-1.5,1.2-3.2,2.5-5.1,3.9c-1.1,0.8-2.2,1.2-3.4,1.2c-1.1,0-2.5-0.2-4-0.6c-2.2-0.6-4.3-1.7-6.1-3.2
					c-1.8-1.6-3.1-3.3-3.9-5.3c-0.1-0.3-0.2-0.5-0.2-0.8s-0.1-0.7-0.2-1.1c-0.1-0.7-0.1-1.3-0.2-2s-0.1-1.3,0-2.1
					c0-0.7,0.1-1.5,0.2-2.5c0.1-0.9,0.4-2,0.8-3.2c0.5-2,1.2-4,2.2-6c0.9-2,1.8-3.9,2.7-5.9c0.3-0.7,0.7-1.4,1.1-2.2
					c0.4-0.7,0.9-1.4,1.3-2.2c0.3-0.4,0.6-0.8,0.9-1.1c0.3-0.4,0.7-0.7,1-1c1.2-1.3,3-1.8,5.2-1.4c0.5,0.1,1.1,0.2,1.7,0.2
					c0.6,0,1.2,0.1,1.8,0.2c0.8,0.1,1.4,0.3,1.9,0.6C144.9,20.8,146.4,21.5,148.1,21.9z M134.9,34.9c4.6-4.6,7.6-8.5,8.8-11.5
					c-1.3-0.4-2.1-0.6-2.5-0.5c-0.4,0-0.9,0.4-1.5,1.1c-1.4,1.5-2.6,3.1-3.4,4.8c-0.9,1.7-1.5,3.5-1.9,5.3c0,0.1,0,0.3,0.1,0.4
					C134.7,34.6,134.8,34.7,134.9,34.9z"/>
				<path class="st0" d="M175.5,53.3c1.3-1,2.7-2.4,4.3-4.2c1.5-1.8,2.9-3.5,4-5c0.1,2.7-0.2,5-0.9,6.8c-0.7,1.9-1.6,3.4-2.6,4.5
					c-1.8,1.6-3.6,2.3-5.3,1.9s-3.4-1.3-5.1-2.7c-0.8-0.6-1.2-1.3-1.4-2.3c-0.3-1.7-0.6-3.4-0.7-5c-0.2-1.6,0.2-3.2,1-4.7l2.7-5.6
					c0.5-1,0.8-2.2,1.1-3.3c0.3-1.2,0.2-2.6-0.1-4.1c-0.5,0.5-1,0.9-1.4,1.2s-0.7,0.6-1,0.9c-2.3,3.5-4.6,7.1-6.9,10.6
					c-2.3,3.5-4.3,7.3-6,11.2c-0.3,0.5-0.5,1-0.8,1.6c-0.3,0.5-0.6,1-0.9,1.6c-1.8,0.1-3.3-0.4-4.6-1.4s-1.9-2.3-2-4
					c-0.1-1.1,0-2.7,0.2-4.9c0.2-2.1,0.4-4.3,0.7-6.4c0.3-2.6,0.6-5.2,1-8.1c0.3-0.3,0.5-0.6,0.5-1.1s0-0.9,0.1-1.4
					c0-0.3,0-0.6,0-1.1s0.1-1,0.1-1.4c0.1-0.5,0.2-0.9,0.3-1.3c0.1-0.4,0.3-0.7,0.4-0.8c0.1-0.1,0.5-0.2,1-0.2c0.6,0,1.1,0,1.8,0.2
					c0.6,0.2,1.2,0.4,1.7,0.7s0.8,0.7,0.9,1.3l0.2,3.8c-0.3,0.8-0.4,1.7-0.3,2.6c0.1,0.9,0.1,1.9,0,2.8c-0.1,0.8-0.3,1.6-0.4,2.3
					c-0.2,0.8-0.3,1.5-0.4,2.3l0.5,0.4c0.3-0.3,0.5-0.5,0.8-0.6c0.3-0.2,0.5-0.4,0.7-0.7c1.5-2.3,3.2-4.4,5.1-6.4
					c1.9-2,3.8-3.9,5.9-5.6c0.9-0.8,2-1.3,3.2-1.7c0.9-0.2,1.7-0.1,2.2,0.2c0.6,0.4,1.2,0.9,1.8,1.7c0.7,0.9,1.2,1.8,1.3,2.7
					c0.2,0.9,0.1,1.9-0.1,3c-0.5,2.4-1,4.8-1.3,7.2c-0.4,2.5-1,4.8-1.8,7.1c-0.3,0.7-0.5,1.5-0.6,2.4
					C174,51.5,174.5,52.4,175.5,53.3z"/>
			</g>
			<g>
				<g>
					<path class="st0" d="M70.9,91.5h3.7V64.6h-3.7v-0.7h10.4c4.7,0,8,2.1,8,7.7c0,5.8-3.4,8-8.4,8h-5.4v11.9h4.6v0.7h-9.2
						C70.9,92.2,70.9,91.5,70.9,91.5z M75.5,78.9h5.2c1.7,0,7.8-0.3,7.8-7.2c0-4.9-2.7-7.1-8-7.1h-5V78.9z"/>
					<path class="st0" d="M89.8,91.5h3.8V64.6h-3.8v-0.7h19v8.4h-0.9v-7.7H94.4v12.8h8.1v-5.2h0.9v11.3h-0.9v-5.4h-8.1v13.4H108v-8
						h0.9v8.7H89.8V91.5z"/>
					<path class="st0" d="M110.6,91.5h2.3l9.8-27.7h1.5l9.7,27.7h2.2v0.7H129v-0.7h4l-3.6-10.3h-12l-3.6,10.3h4v0.7h-7.1v-0.7H110.6
						z M129.1,80.5l-5.7-16.2h-0.1l-5.7,16.2H129.1z"/>
					<path class="st0" d="M157,63.9v9.7h-0.9c-0.3-5.5-3.2-9.4-8.4-9.4s-10.1,4-10.1,13.6c0,6.3,2.6,13.9,10.1,13.9
						c4.7,0,8.3-3.2,8.6-8.6h0.9c-0.4,5.6-3.6,9.5-9.4,9.5c-7.1,0-11-6-11-15c0-7.1,3.1-14.3,11.1-14.3c3.1,0,6.8,1.3,8.3,6h0.1
						v-5.5h0.7V63.9z"/>
					<path class="st0" d="M158.7,91.5h3.8V64.6h-3.8v-0.7h8.4v0.7h-3.8v12.8H179V64.6h-3.8v-0.7h8.4v0.7H180v26.9h3.8v0.7h-8.4v-0.7
						h3.8V78.1h-15.7v13.4h3.8v0.7h-8.4v-0.7H158.7z"/>
				</g>
			</g>
		</g>
		<path class="st0" d="M71.7,110.4h0.5v0.2c0,2.3,1.4,4,3.7,4c3.2,0,3.8-2.1,3.8-3c0-1.8-1.2-2.5-2.7-2.6l-1.8-0.2
			c-1.7-0.2-3.3-0.9-3.3-3.1c0-2.6,1.9-3.7,4-3.7c1.6,0,2.8,0.6,3.5,1.9l0,0v-1.6H80v4.1h-0.5V106c0-2.2-1.5-3.4-3.6-3.4
			c-2.5,0-3.5,1.5-3.5,3c0,1.7,1.2,2.4,2.5,2.6l1.9,0.3c2.3,0.3,3.4,1.3,3.4,3.2c0,2.1-1.5,3.6-4.3,3.6c-1.6,0-3-0.5-3.7-2.2h-0.1
			v1.9h-0.5L71.7,110.4L71.7,110.4z"/>
		<path class="st0" d="M92.4,114.4h2.1v0.4h-2.6v-2.3l0,0c-0.8,1.6-2.1,2.6-3.9,2.6c-2.2,0-3.9-1.2-3.9-4.1v-8.3H82v-0.4h2.6v8.5
			c0,2.8,1.3,3.9,3.6,3.9c2.1,0,3.7-1.9,3.7-4.5v-7.4h-2.1v-0.4h2.6C92.4,102.4,92.4,114.4,92.4,114.4z"/>
		<path class="st0" d="M97.7,102.7h-2.1v-0.4h2.6v2.7l0,0c0.7-1.9,2.2-3,4.2-3c2.8,0,5.1,2.3,5.1,6.6s-2.3,6.6-5.1,6.6
			c-2.4,0-3.8-1.5-4.2-2.8l0,0v6.2h2.1v0.4h-4.6v-0.4h2V102.7z M98.3,109.5c0,4.3,2.5,5.1,4.2,5.1c3.1,0,4.6-2.7,4.6-6s-1.5-6-4.6-6
			c-1.7,0-4.2,0.9-4.2,5.5V109.5z"/>
		<path class="st0" d="M110.2,108.5c0,3.3,1.4,6.1,4.6,6.1c2.6,0,3.7-1.6,4.2-3.4h0.5c-0.6,2.8-2.5,4-4.7,4c-2.9,0-5.1-2.2-5.1-6.6
			c0-4.5,2.2-6.6,5.1-6.6c1.8,0,4.9,1,4.9,6.5H110.2z M119.1,108.1c0-2.7-1.3-5.6-4.4-5.6c-3,0-4.4,2.5-4.5,5.6H119.1z"/>
		<path class="st0" d="M121.4,114.4h2.1v-11.7h-2.1v-0.4h2.6v2.2l0,0c0.4-1.5,2-2.5,3.3-2.5c0.4,0,0.8,0.1,1.2,0.2v0.5
			c-0.1,0-0.3-0.1-0.5-0.1c-0.2-0.1-0.4-0.1-0.7-0.1c-1.9,0-3.4,1.6-3.4,4.1v7.8h2.4v0.4h-5L121.4,114.4L121.4,114.4z"/>
		<path class="st0" d="M129.8,114.4h2v-11.7h-2.2v-0.4h2.2V101c0-3.1,1.6-4,3.1-4c0.8,0,1.3,0.2,1.5,0.3v0.5
			c-0.5-0.2-0.9-0.3-1.5-0.3c-1.6,0-2.5,1.3-2.5,3.2v1.5h2.8v0.4h-2.8v11.7h2.4v0.4h-4.9L129.8,114.4L129.8,114.4z"/>
		<path class="st0" d="M142,115.1c-2.9,0-5.1-2.2-5.1-6.6c0-4.4,2.3-6.6,5.1-6.6c2.9,0,5.1,2.2,5.1,6.6
			C147.2,112.9,145,115.1,142,115.1z M142,102.5c-2.7,0-4.6,2.1-4.6,6c0,3.3,1.3,6.1,4.6,6.1c3.3,0,4.6-2.7,4.6-6.1
			C146.6,105.2,145.3,102.5,142,102.5z"/>
		<path class="st0" d="M154.3,115.1c-2.9,0-5.1-2.2-5.1-6.6c0-4.4,2.3-6.6,5.1-6.6c2.9,0,5.1,2.2,5.1,6.6
			C159.4,112.9,157.2,115.1,154.3,115.1z M154.3,102.5c-2.7,0-4.6,2.1-4.6,6c0,3.3,1.3,6.1,4.6,6.1s4.6-2.7,4.6-6.1
			C158.9,105.2,157.5,102.5,154.3,102.5z"/>
		<path class="st0" d="M170.8,112.1L170.8,112.1c-0.7,1.9-2.3,3-4.2,3c-2.8,0-5.1-2.3-5.1-6.6s2.3-6.6,5.1-6.6
			c2.4,0,3.8,1.5,4.2,2.8l0,0v-7h-2.1v-0.4h2.6v17.1h2.1v0.4h-2.6V112.1z M170.8,107.6c0-4.3-2.5-5.1-4.2-5.1c-3.1,0-4.6,2.7-4.6,6
			s1.5,6.1,4.6,6.1c1.7,0,4.2-0.9,4.2-5.5V107.6z"/>
		<path class="st0" d="M175.2,110.4h0.5v0.2c0,2.3,1.4,4,3.7,4c3.2,0,3.8-2.1,3.8-3c0-1.8-1.3-2.5-2.7-2.6l-1.8-0.2
			c-1.7-0.2-3.3-0.9-3.3-3.1c0-2.6,1.9-3.7,4-3.7c1.6,0,2.8,0.6,3.5,1.9l0,0v-1.6h0.5v4.1h-0.5V106c0-2.2-1.5-3.4-3.6-3.4
			c-2.5,0-3.5,1.5-3.5,3c0,1.7,1.2,2.4,2.5,2.6l1.9,0.3c2.3,0.3,3.4,1.3,3.4,3.2c0,2.1-1.5,3.6-4.3,3.6c-1.6,0-3-0.5-3.7-2.2l0,0
			v1.9h-0.5v-4.6H175.2z"/>
	</g>
	<g>
		<g>
			<path class="st0" d="M72.7-22.3c0.7,2.8,1.6,5.6,2.8,8.4c9.4,22.1,31.2,34.4,51.1,30.1c-0.7-2.8-1.6-5.6-2.8-8.4
				C114.5-14.3,92.7-26.6,72.7-22.3z"/>
			<path class="st0" d="M143.9-28c1,1.4,1.9,3,2.6,4.7c5.6,13.2-1,29-15,37.4c-1-1.4-1.9-3-2.6-4.7C123.4-3.8,130-19.6,143.9-28z"/>
			<g>
				<path class="st0" d="M66.2,1.1c1.1,0,1.7,0.7,1.7,2c-0.1,1.1-0.1,2.2,0,3.2c0,1,0,2.1-0.1,3.2c-0.3,2.6-0.5,5.1-0.7,7.6
					c-0.2,2.5-0.5,5.1-0.8,7.6c-0.2,1.7-0.4,3.2-0.5,4.6c-0.1,1.4-0.3,2.8-0.4,4.3c-0.2,1.5-0.3,3-0.5,4.7c-0.2,1.7-0.5,3.6-0.8,5.8
					c-0.5,3.1-1.3,6.2-2.5,9.3c-1.2,3-2.8,5.7-4.8,8s-4.6,4-7.6,5.1s-6.6,1.4-10.8,0.6c-0.9-0.1-1.8-0.4-2.5-0.8
					c-1-0.3-1.5-0.8-1.8-1.3c-0.3-0.5-0.4-1.1-0.2-1.7c0.2-0.6,0.7-1.2,1.7-1.8c2,0.2,3.6,0.2,4.9,0s2.4-0.6,3.4-1.1
					c0.9-0.5,1.8-1.1,2.5-1.8c0.7-0.7,1.4-1.4,2.2-2.2c1.6-1.6,2.9-3.3,3.9-5.2c0.9-1.9,1.7-3.7,2.2-5.5s0.9-3.5,1.2-5
					c0.3-1.5,0.5-2.8,0.7-3.7c0.1-1.5,0.2-3,0.3-4.5c0.2-1.5,0.3-3,0.3-4.5v-3.4c-0.6,1.3-1.1,2.3-1.5,3.1s-0.7,1.5-0.9,2.2
					c-0.5,1.8-0.9,3.4-1.4,4.7c-0.5,1.3-1.3,2.6-2.3,3.9c-1,1.8-2.1,3.4-3,4.6c-1,1.2-2.3,2.1-3.9,2.7c-1.2,0.5-2.5,0.4-3.9-0.1
					s-2.5-1.3-3.3-2.4c-2.2-2.9-3.4-5.9-3.7-9.1c-0.3-3.2-0.3-6.5,0-9.8c0.1-1.1,0.3-2.2,0.5-3.2s0.4-2.1,0.6-3.2l2-10.9
					c0.1-0.3,0.1-0.7,0.2-1c0.1-0.3,0.2-0.7,0.2-1c0.2-0.9,0.5-1.9,0.9-3C38.1,1,38.6,0,39.3-1c0.6-1,1.3-2,2.1-2.9
					c0.8-0.9,1.6-1.7,2.4-2.3C45.1-7,46.5-7.6,47.9-8c1.4-0.3,2.7-0.5,3.9-0.5c1.2,0,2.2,0,3.1,0.1c0.9,0.1,1.5,0.2,1.8,0.2
					c1,0,1.9,0.2,2.5,0.5c0.6,0.4,1.1,0.9,1.5,1.6c0.4,0.7,0.8,1.5,1.1,2.6c0.3,1,0.8,2.1,1.3,3.4c-0.3,0.3-0.6,0.6-0.8,0.8
					c-0.2,0.2-0.4,0.3-0.6,0.4c-0.1,0-0.1,0-0.1,0s0,0-0.1,0c0.9,0,1.7,0,2.7,0C64.8,1,65.6,1,66.2,1.1z M58.8,7.1
					c0.1-1,0.3-1.9,0.6-2.9c0.3-0.9,0.5-2,0.8-3.1C60.1,1.1,60,1,60,0.9c-0.9-2.5-2-4.1-3.2-4.9c-1.2-0.8-2.5-1.1-3.7-0.9
					c-1.2,0.2-2.3,0.7-3.2,1.5c-0.9,0.8-1.4,1.6-1.6,2.2c-0.5,2.2-1,4.5-1.5,6.7c-0.5,2.3-0.9,4.5-1.2,6.8c-0.3,1.6-0.4,3.2-0.4,4.8
					S45.1,20.3,45,22c-0.1,0.9-0.2,1.7-0.3,2.5c-0.1,0.8-0.3,1.6-0.4,2.5c-0.1,1.4-0.1,2.9,0,4.3l1,8.5c0.3-0.5,0.6-0.8,0.7-1
					c0.2-0.2,0.3-0.4,0.4-0.6c1.7-3.9,3.4-7.7,5.1-11.5s3.4-7.6,5.1-11.5c0.7-1.3,1.1-2.6,1.4-4C58.3,9.9,58.5,8.5,58.8,7.1z"/>
				<path class="st0" d="M93.1,19.4c2.3-0.7,4.2-0.2,5.6,1.7c0.6,0.7,0.9,1.5,0.9,2.4s-0.1,1.7-0.5,2.7c-0.6,1.5-1.2,3-1.8,4.6
					c-0.6,1.6-1.1,3.1-1.7,4.7c-0.2,0.5-0.6,1.3-1.1,2.3c-0.6,1-0.9,1.7-1.1,2.3v2.1c-0.4,0-0.8,0-1.2,0s-0.8-0.1-1.1-0.2
					c-1.7-0.5-2.8-1.2-3.2-2c-0.4-0.8-0.4-2.1,0.1-3.8c0.5-1.6,1.1-3.1,1.6-4.7c0.6-1.6,1.1-3.1,1.6-4.7l0.9-2.8
					c-0.7,0.2-1.3,0.5-1.6,0.9c-0.4,0.4-0.7,0.8-0.9,1.3c-1.8,2.8-3.5,5.7-4.9,8.7c-1.4,3-2.6,6.1-3.5,9.4c-0.5,1.8-1.1,3.6-1.7,5.4
					c-0.6,1.7-1.3,3.5-1.9,5.3c-0.3,0.7-0.5,1.5-0.4,2.2c0,0.8,0.3,1.5,0.8,2.2c-1.1,0.7-2.3,1.1-3.4,1.2c-1.2,0.1-2.3-0.1-3.2-0.6
					c-1-0.5-1.8-1.1-2.4-2.1c-0.6-0.9-1-2-1-3.3c-0.1-1,0-2.1,0.2-3.1c0.2-1,0.4-2,0.5-3.1l0.4-3.4c0.2-1.4,0.4-2.7,0.5-3.8
					c0.1-1.1,0.3-2.1,0.4-3.2c0.1-1,0.3-2.1,0.4-3.3c0.2-1.1,0.4-2.5,0.6-4.1c0.1-2.1,0.3-4.2,0.8-6.2c0.5-2.1,1-4.1,1.4-6.2
					c0.3-1.2,0.7-2,1.2-2.3s1.3-0.3,2.7-0.1c1.1,0.2,1.9,0.4,2.5,0.7s1.1,0.7,1.7,1.3c-1,3.4-1.8,6.8-2.4,10.3
					c-0.6,3.4-0.6,7-0.1,10.7l4-6.6c1.1-1.8,2.2-3.7,3.2-5.5s2.4-3.4,4.1-4.8c0.5-0.3,0.9-0.7,1.4-1C92,19.7,92.6,19.5,93.1,19.4z"
					/>
				<path class="st0" d="M122,21.9c1.5,0.5,2.1,1.3,1.8,2.5c-0.1,0.3-0.2,0.6-0.3,0.9c-0.1,0.3-0.2,0.6-0.4,0.9
					c-1.4,2.5-3.1,4.9-5,7.2s-4,4.5-6.4,6.6c-0.9,0.8-1.7,1.6-2.5,2.5s-1.5,1.7-2.1,2.7c-0.4,0.7-0.6,1.4-0.7,2.1
					c-0.1,0.8-0.1,1.5-0.1,2.2c0,1.1,0.4,2.3,1.3,3.6c0.9,1.3,1.9,2.3,3,3c0.5-0.4,1.2-0.9,2.1-1.5s1.6-1.2,2.1-1.6
					c2.1-1.9,4.2-3.6,6.3-5.1c2.1-1.5,3.7-2.8,4.7-3.9c-0.1,0.7-0.3,1.4-0.5,2.2c-0.1,0.6-0.3,1.2-0.5,2c-0.2,0.7-0.5,1.3-0.8,1.9
					c-1,1.7-2.3,3.2-3.8,4.4c-1.5,1.2-3.2,2.5-5.1,3.9c-1.1,0.8-2.2,1.2-3.4,1.2c-1.1,0-2.5-0.2-4-0.6c-2.2-0.6-4.3-1.7-6.1-3.2
					c-1.8-1.6-3.1-3.3-3.9-5.3c-0.1-0.3-0.2-0.5-0.2-0.8s-0.1-0.7-0.2-1.1c-0.1-0.7-0.1-1.3-0.2-2s-0.1-1.3,0-2.1
					c0-0.7,0.1-1.5,0.2-2.5c0.1-0.9,0.4-2,0.8-3.2c0.5-2,1.2-4,2.2-6c0.9-2,1.8-3.9,2.7-5.9c0.3-0.7,0.7-1.4,1.1-2.2
					c0.4-0.7,0.9-1.4,1.3-2.2c0.3-0.4,0.6-0.8,0.9-1.1c0.3-0.4,0.7-0.7,1-1c1.2-1.3,3-1.8,5.2-1.4c0.5,0.1,1.1,0.2,1.7,0.2
					s1.2,0.1,1.8,0.2c0.8,0.1,1.4,0.3,1.9,0.6C118.9,20.8,120.4,21.5,122,21.9z M108.9,34.9c4.6-4.6,7.6-8.5,8.8-11.5
					c-1.3-0.4-2.1-0.6-2.5-0.5c-0.4,0-0.9,0.4-1.5,1.1c-1.4,1.5-2.6,3.1-3.4,4.8c-0.9,1.7-1.5,3.5-1.9,5.3c0,0.1,0,0.3,0.1,0.4
					C108.6,34.6,108.8,34.7,108.9,34.9z"/>
				<path class="st0" d="M148.1,21.9c1.5,0.5,2.1,1.3,1.8,2.5c-0.1,0.3-0.2,0.6-0.3,0.9c-0.1,0.3-0.2,0.6-0.4,0.9
					c-1.4,2.5-3.1,4.9-5,7.2s-4,4.5-6.4,6.6c-0.9,0.8-1.7,1.6-2.5,2.5c-0.8,0.9-1.5,1.7-2.1,2.7c-0.4,0.7-0.6,1.4-0.7,2.1
					c-0.1,0.8-0.1,1.5-0.1,2.2c0,1.1,0.4,2.3,1.3,3.6c0.9,1.3,1.9,2.3,3,3c0.5-0.4,1.2-0.9,2.1-1.5s1.6-1.2,2.1-1.6
					c2.1-1.9,4.2-3.6,6.3-5.1c2.1-1.5,3.7-2.8,4.7-3.9c-0.1,0.7-0.3,1.4-0.5,2.2c-0.1,0.6-0.3,1.2-0.5,2c-0.2,0.7-0.5,1.3-0.8,1.9
					c-1,1.7-2.3,3.2-3.8,4.4c-1.5,1.2-3.2,2.5-5.1,3.9c-1.1,0.8-2.2,1.2-3.4,1.2c-1.1,0-2.5-0.2-4-0.6c-2.2-0.6-4.3-1.7-6.1-3.2
					c-1.8-1.6-3.1-3.3-3.9-5.3c-0.1-0.3-0.2-0.5-0.2-0.8s-0.1-0.7-0.2-1.1c-0.1-0.7-0.1-1.3-0.2-2s-0.1-1.3,0-2.1
					c0-0.7,0.1-1.5,0.2-2.5c0.1-0.9,0.4-2,0.8-3.2c0.5-2,1.2-4,2.2-6c0.9-2,1.8-3.9,2.7-5.9c0.3-0.7,0.7-1.4,1.1-2.2
					c0.4-0.7,0.9-1.4,1.3-2.2c0.3-0.4,0.6-0.8,0.9-1.1c0.3-0.4,0.7-0.7,1-1c1.2-1.3,3-1.8,5.2-1.4c0.5,0.1,1.1,0.2,1.7,0.2
					c0.6,0,1.2,0.1,1.8,0.2c0.8,0.1,1.4,0.3,1.9,0.6C144.9,20.8,146.4,21.5,148.1,21.9z M134.9,34.9c4.6-4.6,7.6-8.5,8.8-11.5
					c-1.3-0.4-2.1-0.6-2.5-0.5c-0.4,0-0.9,0.4-1.5,1.1c-1.4,1.5-2.6,3.1-3.4,4.8c-0.9,1.7-1.5,3.5-1.9,5.3c0,0.1,0,0.3,0.1,0.4
					C134.7,34.6,134.8,34.7,134.9,34.9z"/>
				<path class="st0" d="M175.5,53.3c1.3-1,2.7-2.4,4.3-4.2c1.5-1.8,2.9-3.5,4-5c0.1,2.7-0.2,5-0.9,6.8c-0.7,1.9-1.6,3.4-2.6,4.5
					c-1.8,1.6-3.6,2.3-5.3,1.9s-3.4-1.3-5.1-2.7c-0.8-0.6-1.2-1.3-1.4-2.3c-0.3-1.7-0.6-3.4-0.7-5c-0.2-1.6,0.2-3.2,1-4.7l2.7-5.6
					c0.5-1,0.8-2.2,1.1-3.3c0.3-1.2,0.2-2.6-0.1-4.1c-0.5,0.5-1,0.9-1.4,1.2s-0.7,0.6-1,0.9c-2.3,3.5-4.6,7.1-6.9,10.6
					c-2.3,3.5-4.3,7.3-6,11.2c-0.3,0.5-0.5,1-0.8,1.6c-0.3,0.5-0.6,1-0.9,1.6c-1.8,0.1-3.3-0.4-4.6-1.4s-1.9-2.3-2-4
					c-0.1-1.1,0-2.7,0.2-4.9c0.2-2.1,0.4-4.3,0.7-6.4c0.3-2.6,0.6-5.2,1-8.1c0.3-0.3,0.5-0.6,0.5-1.1s0-0.9,0.1-1.4
					c0-0.3,0-0.6,0-1.1s0.1-1,0.1-1.4c0.1-0.5,0.2-0.9,0.3-1.3c0.1-0.4,0.3-0.7,0.4-0.8c0.1-0.1,0.5-0.2,1-0.2c0.6,0,1.1,0,1.8,0.2
					c0.6,0.2,1.2,0.4,1.7,0.7s0.8,0.7,0.9,1.3l0.2,3.8c-0.3,0.8-0.4,1.7-0.3,2.6c0.1,0.9,0.1,1.9,0,2.8c-0.1,0.8-0.3,1.6-0.4,2.3
					c-0.2,0.8-0.3,1.5-0.4,2.3l0.5,0.4c0.3-0.3,0.5-0.5,0.8-0.6c0.3-0.2,0.5-0.4,0.7-0.7c1.5-2.3,3.2-4.4,5.1-6.4
					c1.9-2,3.8-3.9,5.9-5.6c0.9-0.8,2-1.3,3.2-1.7c0.9-0.2,1.7-0.1,2.2,0.2c0.6,0.4,1.2,0.9,1.8,1.7c0.7,0.9,1.2,1.8,1.3,2.7
					c0.2,0.9,0.1,1.9-0.1,3c-0.5,2.4-1,4.8-1.3,7.2c-0.4,2.5-1,4.8-1.8,7.1c-0.3,0.7-0.5,1.5-0.6,2.4
					C174,51.5,174.5,52.4,175.5,53.3z"/>
			</g>
			<g>
				<g>
					<path class="st0" d="M70.9,91.5h3.7V64.6h-3.7v-0.7h10.4c4.7,0,8,2.1,8,7.7c0,5.8-3.4,8-8.4,8h-5.4v11.9h4.6v0.7h-9.2
						C70.9,92.2,70.9,91.5,70.9,91.5z M75.5,78.9h5.2c1.7,0,7.8-0.3,7.8-7.2c0-4.9-2.7-7.1-8-7.1h-5V78.9z"/>
					<path class="st0" d="M89.8,91.5h3.8V64.6h-3.8v-0.7h19v8.4h-0.9v-7.7H94.4v12.8h8.1v-5.2h0.9v11.3h-0.9v-5.4h-8.1v13.4H108v-8
						h0.9v8.7H89.8V91.5z"/>
					<path class="st0" d="M110.6,91.5h2.3l9.8-27.7h1.5l9.7,27.7h2.2v0.7H129v-0.7h4l-3.6-10.3h-12l-3.6,10.3h4v0.7h-7.1v-0.7H110.6
						z M129.1,80.5l-5.7-16.2h-0.1l-5.7,16.2H129.1z"/>
					<path class="st0" d="M157,63.9v9.7h-0.9c-0.3-5.5-3.2-9.4-8.4-9.4s-10.1,4-10.1,13.6c0,6.3,2.6,13.9,10.1,13.9
						c4.7,0,8.3-3.2,8.6-8.6h0.9c-0.4,5.6-3.6,9.5-9.4,9.5c-7.1,0-11-6-11-15c0-7.1,3.1-14.3,11.1-14.3c3.1,0,6.8,1.3,8.3,6h0.1
						v-5.5h0.7V63.9z"/>
					<path class="st0" d="M158.7,91.5h3.8V64.6h-3.8v-0.7h8.4v0.7h-3.8v12.8H179V64.6h-3.8v-0.7h8.4v0.7H180v26.9h3.8v0.7h-8.4v-0.7
						h3.8V78.1h-15.7v13.4h3.8v0.7h-8.4v-0.7H158.7z"/>
				</g>
			</g>
		</g>
		<path class="st0" d="M71.7,110.4h0.5v0.2c0,2.3,1.4,4,3.7,4c3.2,0,3.8-2.1,3.8-3c0-1.8-1.2-2.5-2.7-2.6l-1.8-0.2
			c-1.7-0.2-3.3-0.9-3.3-3.1c0-2.6,1.9-3.7,4-3.7c1.6,0,2.8,0.6,3.5,1.9l0,0v-1.6H80v4.1h-0.5V106c0-2.2-1.5-3.4-3.6-3.4
			c-2.5,0-3.5,1.5-3.5,3c0,1.7,1.2,2.4,2.5,2.6l1.9,0.3c2.3,0.3,3.4,1.3,3.4,3.2c0,2.1-1.5,3.6-4.3,3.6c-1.6,0-3-0.5-3.7-2.2h-0.1
			v1.9h-0.5L71.7,110.4L71.7,110.4z"/>
		<path class="st0" d="M92.4,114.4h2.1v0.4h-2.6v-2.3l0,0c-0.8,1.6-2.1,2.6-3.9,2.6c-2.2,0-3.9-1.2-3.9-4.1v-8.3H82v-0.4h2.6v8.5
			c0,2.8,1.3,3.9,3.6,3.9c2.1,0,3.7-1.9,3.7-4.5v-7.4h-2.1v-0.4h2.6C92.4,102.4,92.4,114.4,92.4,114.4z"/>
		<path class="st0" d="M97.7,102.7h-2.1v-0.4h2.6v2.7l0,0c0.7-1.9,2.2-3,4.2-3c2.8,0,5.1,2.3,5.1,6.6s-2.3,6.6-5.1,6.6
			c-2.4,0-3.8-1.5-4.2-2.8l0,0v6.2h2.1v0.4h-4.6v-0.4h2V102.7z M98.3,109.5c0,4.3,2.5,5.1,4.2,5.1c3.1,0,4.6-2.7,4.6-6s-1.5-6-4.6-6
			c-1.7,0-4.2,0.9-4.2,5.5V109.5z"/>
		<path class="st0" d="M110.2,108.5c0,3.3,1.4,6.1,4.6,6.1c2.6,0,3.7-1.6,4.2-3.4h0.5c-0.6,2.8-2.5,4-4.7,4c-2.9,0-5.1-2.2-5.1-6.6
			c0-4.5,2.2-6.6,5.1-6.6c1.8,0,4.9,1,4.9,6.5H110.2z M119.1,108.1c0-2.7-1.3-5.6-4.4-5.6c-3,0-4.4,2.5-4.5,5.6H119.1z"/>
		<path class="st0" d="M121.4,114.4h2.1v-11.7h-2.1v-0.4h2.6v2.2l0,0c0.4-1.5,2-2.5,3.3-2.5c0.4,0,0.8,0.1,1.2,0.2v0.5
			c-0.1,0-0.3-0.1-0.5-0.1c-0.2-0.1-0.4-0.1-0.7-0.1c-1.9,0-3.4,1.6-3.4,4.1v7.8h2.4v0.4h-5L121.4,114.4L121.4,114.4z"/>
		<path class="st0" d="M129.8,114.4h2v-11.7h-2.2v-0.4h2.2V101c0-3.1,1.6-4,3.1-4c0.8,0,1.3,0.2,1.5,0.3v0.5
			c-0.5-0.2-0.9-0.3-1.5-0.3c-1.6,0-2.5,1.3-2.5,3.2v1.5h2.8v0.4h-2.8v11.7h2.4v0.4h-4.9L129.8,114.4L129.8,114.4z"/>
		<path class="st0" d="M142,115.1c-2.9,0-5.1-2.2-5.1-6.6c0-4.4,2.3-6.6,5.1-6.6c2.9,0,5.1,2.2,5.1,6.6
			C147.2,112.9,145,115.1,142,115.1z M142,102.5c-2.7,0-4.6,2.1-4.6,6c0,3.3,1.3,6.1,4.6,6.1c3.3,0,4.6-2.7,4.6-6.1
			C146.6,105.2,145.3,102.5,142,102.5z"/>
		<path class="st0" d="M154.3,115.1c-2.9,0-5.1-2.2-5.1-6.6c0-4.4,2.3-6.6,5.1-6.6c2.9,0,5.1,2.2,5.1,6.6
			C159.4,112.9,157.2,115.1,154.3,115.1z M154.3,102.5c-2.7,0-4.6,2.1-4.6,6c0,3.3,1.3,6.1,4.6,6.1s4.6-2.7,4.6-6.1
			C158.9,105.2,157.5,102.5,154.3,102.5z"/>
		<path class="st0" d="M170.8,112.1L170.8,112.1c-0.7,1.9-2.3,3-4.2,3c-2.8,0-5.1-2.3-5.1-6.6s2.3-6.6,5.1-6.6
			c2.4,0,3.8,1.5,4.2,2.8l0,0v-7h-2.1v-0.4h2.6v17.1h2.1v0.4h-2.6V112.1z M170.8,107.6c0-4.3-2.5-5.1-4.2-5.1c-3.1,0-4.6,2.7-4.6,6
			s1.5,6.1,4.6,6.1c1.7,0,4.2-0.9,4.2-5.5V107.6z"/>
		<path class="st0" d="M175.2,110.4h0.5v0.2c0,2.3,1.4,4,3.7,4c3.2,0,3.8-2.1,3.8-3c0-1.8-1.3-2.5-2.7-2.6l-1.8-0.2
			c-1.7-0.2-3.3-0.9-3.3-3.1c0-2.6,1.9-3.7,4-3.7c1.6,0,2.8,0.6,3.5,1.9l0,0v-1.6h0.5v4.1h-0.5V106c0-2.2-1.5-3.4-3.6-3.4
			c-2.5,0-3.5,1.5-3.5,3c0,1.7,1.2,2.4,2.5,2.6l1.9,0.3c2.3,0.3,3.4,1.3,3.4,3.2c0,2.1-1.5,3.6-4.3,3.6c-1.6,0-3-0.5-3.7-2.2l0,0
			v1.9h-0.5v-4.6H175.2z"/>
	</g>
</g>
</svg>
