<?xml version="1.0" encoding="utf-8"?>
<!-- Generator: Adobe Illustrator 19.1.0, SVG Export Plug-In . SVG Version: 6.00 Build 0)  -->
<svg version="1.1" id="Layer_1" xmlns="http://www.w3.org/2000/svg" xmlns:xlink="http://www.w3.org/1999/xlink" x="0px" y="0px"
	 viewBox="0 0 153 149" style="enable-background:new 0 0 153 149;" xml:space="preserve">
<style type="text/css">
	.st0{fill:#A6BD33;}
	.st1{fill:#9C9792;}
	.st2{fill:#F28353;}
	.st3{fill:#B7E268;}
</style>
<g>
	<g>
		<g>
			<path class="st0" d="M40.7,6.7c0.7,2.8,1.6,5.6,2.8,8.4c9.4,22.1,31.2,34.4,51.1,30.1c-0.7-2.8-1.6-5.6-2.8-8.4
				C82.5,14.7,60.7,2.4,40.7,6.7z"/>
			<path class="st0" d="M111.9,1c1,1.4,1.9,3,2.6,4.7c5.6,13.2-1,29-15,37.4c-1-1.4-1.9-3-2.6-4.7C91.4,25.2,98,9.4,111.9,1z"/>
			<g>
				<path class="st1" d="M34.2,30.1c1.1,0,1.7,0.7,1.7,2c-0.1,1.1-0.1,2.2,0,3.2c0,1,0,2.1-0.1,3.2c-0.3,2.6-0.5,5.1-0.7,7.6
					c-0.2,2.5-0.5,5.1-0.8,7.6c-0.2,1.7-0.4,3.2-0.5,4.6c-0.1,1.4-0.3,2.8-0.4,4.3c-0.2,1.5-0.3,3-0.5,4.7c-0.2,1.7-0.5,3.6-0.8,5.8
					c-0.5,3.1-1.3,6.2-2.5,9.3c-1.2,3-2.8,5.7-4.8,8c-2,2.3-4.6,4-7.6,5.1c-3,1.1-6.6,1.4-10.8,0.6c-0.9-0.1-1.8-0.4-2.5-0.8
					C2.9,95,2.4,94.5,2.1,94c-0.3-0.5-0.4-1.1-0.2-1.7c0.2-0.6,0.7-1.2,1.7-1.8c2,0.2,3.6,0.2,4.9,0c1.3-0.2,2.4-0.6,3.4-1.1
					c0.9-0.5,1.8-1.1,2.5-1.8c0.7-0.7,1.4-1.4,2.2-2.2c1.6-1.6,2.9-3.3,3.9-5.2c0.9-1.9,1.7-3.7,2.2-5.5c0.5-1.8,0.9-3.5,1.2-5
					c0.3-1.5,0.5-2.8,0.7-3.7c0.1-1.5,0.2-3,0.3-4.5c0.2-1.5,0.3-3,0.3-4.5v-3.4c-0.6,1.3-1.1,2.3-1.5,3.1c-0.4,0.8-0.7,1.5-0.9,2.2
					c-0.5,1.8-0.9,3.4-1.4,4.7c-0.5,1.3-1.3,2.6-2.3,3.9c-1,1.8-2.1,3.4-3,4.6c-1,1.2-2.3,2.1-3.9,2.7c-1.2,0.5-2.5,0.4-3.9-0.1
					c-1.4-0.5-2.5-1.3-3.3-2.4c-2.2-2.9-3.4-5.9-3.7-9.1c-0.3-3.2-0.3-6.5,0-9.8c0.1-1.1,0.3-2.2,0.5-3.2c0.2-1,0.4-2.1,0.6-3.2
					l2-10.9c0.1-0.3,0.1-0.7,0.2-1c0.1-0.3,0.2-0.7,0.2-1c0.2-0.9,0.5-1.9,0.9-3c0.4-1.1,0.9-2.1,1.6-3.1c0.6-1,1.3-2,2.1-2.9
					c0.8-0.9,1.6-1.7,2.4-2.3c1.3-0.8,2.7-1.4,4.1-1.8c1.4-0.3,2.7-0.5,3.9-0.5c1.2,0,2.2,0,3.1,0.1c0.9,0.1,1.5,0.2,1.8,0.2
					c1,0,1.9,0.2,2.5,0.5c0.6,0.4,1.1,0.9,1.5,1.6c0.4,0.7,0.8,1.5,1.1,2.6c0.3,1,0.8,2.1,1.3,3.4c-0.3,0.3-0.6,0.6-0.8,0.8
					c-0.2,0.2-0.4,0.3-0.6,0.4c-0.1,0-0.1,0-0.1,0c0,0,0,0-0.1,0c0.9,0,1.7,0,2.7,0C32.8,30,33.6,30,34.2,30.1z M26.8,36.1
					c0.1-1,0.3-1.9,0.6-2.9c0.3-0.9,0.5-2,0.8-3.1c-0.1,0-0.2-0.1-0.2-0.2c-0.9-2.5-2-4.1-3.2-4.9c-1.2-0.8-2.5-1.1-3.7-0.9
					c-1.2,0.2-2.3,0.7-3.2,1.5c-0.9,0.8-1.4,1.6-1.6,2.2c-0.5,2.2-1,4.5-1.5,6.7c-0.5,2.3-0.9,4.5-1.2,6.8c-0.3,1.6-0.4,3.2-0.4,4.8
					c0,1.6-0.1,3.2-0.2,4.9c-0.1,0.9-0.2,1.7-0.3,2.5c-0.1,0.8-0.3,1.6-0.4,2.5c-0.1,1.4-0.1,2.9,0,4.3l1,8.5c0.3-0.5,0.6-0.8,0.7-1
					c0.2-0.2,0.3-0.4,0.4-0.6c1.7-3.9,3.4-7.7,5.1-11.5c1.7-3.8,3.4-7.6,5.1-11.5c0.7-1.3,1.1-2.6,1.4-4
					C26.3,38.9,26.5,37.5,26.8,36.1z"/>
				<path class="st1" d="M61.1,48.4c2.3-0.7,4.2-0.2,5.6,1.7c0.6,0.7,0.9,1.5,0.9,2.4c0,0.9-0.1,1.7-0.5,2.7c-0.6,1.5-1.2,3-1.8,4.6
					c-0.6,1.6-1.1,3.1-1.7,4.7c-0.2,0.5-0.6,1.3-1.1,2.3c-0.6,1-0.9,1.7-1.1,2.3v2.1c-0.4,0-0.8,0-1.2,0c-0.4,0-0.8-0.1-1.1-0.2
					c-1.7-0.5-2.8-1.2-3.2-2c-0.4-0.8-0.4-2.1,0.1-3.8c0.5-1.6,1.1-3.1,1.6-4.7c0.6-1.6,1.1-3.1,1.6-4.7l0.9-2.8
					c-0.7,0.2-1.3,0.5-1.6,0.9c-0.4,0.4-0.7,0.8-0.9,1.3c-1.8,2.8-3.5,5.7-4.9,8.7c-1.4,3-2.6,6.1-3.5,9.4c-0.5,1.8-1.1,3.6-1.7,5.4
					c-0.6,1.7-1.3,3.5-1.9,5.3c-0.3,0.7-0.5,1.5-0.4,2.2c0,0.8,0.3,1.5,0.8,2.2c-1.1,0.7-2.3,1.1-3.4,1.2c-1.2,0.1-2.3-0.1-3.2-0.6
					c-1-0.5-1.8-1.1-2.4-2.1c-0.6-0.9-1-2-1-3.3c-0.1-1,0-2.1,0.2-3.1c0.2-1,0.4-2,0.5-3.1l0.4-3.4c0.2-1.4,0.4-2.7,0.5-3.8
					c0.1-1.1,0.3-2.1,0.4-3.2c0.1-1,0.3-2.1,0.4-3.3c0.2-1.1,0.4-2.5,0.6-4.1c0.1-2.1,0.3-4.2,0.8-6.2c0.5-2.1,1-4.1,1.4-6.2
					c0.3-1.2,0.7-2,1.2-2.3c0.5-0.3,1.3-0.3,2.7-0.1c1.1,0.2,1.9,0.4,2.5,0.7c0.6,0.3,1.1,0.7,1.7,1.3c-1,3.4-1.8,6.8-2.4,10.3
					c-0.6,3.4-0.6,7-0.1,10.7l4-6.6c1.1-1.8,2.2-3.7,3.2-5.5c1-1.8,2.4-3.4,4.1-4.8c0.5-0.3,0.9-0.7,1.4-1
					C60,48.7,60.6,48.5,61.1,48.4z"/>
				<path class="st1" d="M90,50.9c1.5,0.5,2.1,1.3,1.8,2.5c-0.1,0.3-0.2,0.6-0.3,0.9c-0.1,0.3-0.2,0.6-0.4,0.9
					c-1.4,2.5-3.1,4.9-5,7.2c-1.9,2.3-4,4.5-6.4,6.6c-0.9,0.8-1.7,1.6-2.5,2.5c-0.8,0.9-1.5,1.7-2.1,2.7c-0.4,0.7-0.6,1.4-0.7,2.1
					c-0.1,0.8-0.1,1.5-0.1,2.2c0,1.1,0.4,2.3,1.3,3.6c0.9,1.3,1.9,2.3,3,3c0.5-0.4,1.2-0.9,2.1-1.5c0.9-0.6,1.6-1.2,2.1-1.6
					c2.1-1.9,4.2-3.6,6.3-5.1c2.1-1.5,3.7-2.8,4.7-3.9c-0.1,0.7-0.3,1.4-0.5,2.2c-0.1,0.6-0.3,1.2-0.5,2c-0.2,0.7-0.5,1.3-0.8,1.9
					c-1,1.7-2.3,3.2-3.8,4.4c-1.5,1.2-3.2,2.5-5.1,3.9c-1.1,0.8-2.2,1.2-3.4,1.2c-1.1,0-2.5-0.2-4-0.6c-2.2-0.6-4.3-1.7-6.1-3.2
					c-1.8-1.6-3.1-3.3-3.9-5.3c-0.1-0.3-0.2-0.5-0.2-0.8c0-0.3-0.1-0.7-0.2-1.1c-0.1-0.7-0.1-1.3-0.2-2c-0.1-0.7-0.1-1.3,0-2.1
					c0-0.7,0.1-1.5,0.2-2.5c0.1-0.9,0.4-2,0.8-3.2c0.5-2,1.2-4,2.2-6c0.9-2,1.8-3.9,2.7-5.9c0.3-0.7,0.7-1.4,1.1-2.2
					c0.4-0.7,0.9-1.4,1.3-2.2c0.3-0.4,0.6-0.8,0.9-1.1c0.3-0.4,0.7-0.7,1-1c1.2-1.3,3-1.8,5.2-1.4c0.5,0.1,1.1,0.2,1.7,0.2
					c0.6,0,1.2,0.1,1.8,0.2c0.8,0.1,1.4,0.3,1.9,0.6C86.9,49.8,88.4,50.5,90,50.9z M76.9,63.9c4.6-4.6,7.6-8.5,8.8-11.5
					c-1.3-0.4-2.1-0.6-2.5-0.5c-0.4,0-0.9,0.4-1.5,1.1c-1.4,1.5-2.6,3.1-3.4,4.8c-0.9,1.7-1.5,3.5-1.9,5.3c0,0.1,0,0.3,0.1,0.4
					C76.6,63.6,76.8,63.7,76.9,63.9z"/>
				<path class="st1" d="M116.1,50.9c1.5,0.5,2.1,1.3,1.8,2.5c-0.1,0.3-0.2,0.6-0.3,0.9c-0.1,0.3-0.2,0.6-0.4,0.9
					c-1.4,2.5-3.1,4.9-5,7.2c-1.9,2.3-4,4.5-6.4,6.6c-0.9,0.8-1.7,1.6-2.5,2.5c-0.8,0.9-1.5,1.7-2.1,2.7c-0.4,0.7-0.6,1.4-0.7,2.1
					c-0.1,0.8-0.1,1.5-0.1,2.2c0,1.1,0.4,2.3,1.3,3.6c0.9,1.3,1.9,2.3,3,3c0.5-0.4,1.2-0.9,2.1-1.5c0.9-0.6,1.6-1.2,2.1-1.6
					c2.1-1.9,4.2-3.6,6.3-5.1c2.1-1.5,3.7-2.8,4.7-3.9c-0.1,0.7-0.3,1.4-0.5,2.2c-0.1,0.6-0.3,1.2-0.5,2c-0.2,0.7-0.5,1.3-0.8,1.9
					c-1,1.7-2.3,3.2-3.8,4.4c-1.5,1.2-3.2,2.5-5.1,3.9c-1.1,0.8-2.2,1.2-3.4,1.2c-1.1,0-2.5-0.2-4-0.6c-2.2-0.6-4.3-1.7-6.1-3.2
					c-1.8-1.6-3.1-3.3-3.9-5.3c-0.1-0.3-0.2-0.5-0.2-0.8c0-0.3-0.1-0.7-0.2-1.1c-0.1-0.7-0.1-1.3-0.2-2c-0.1-0.7-0.1-1.3,0-2.1
					c0-0.7,0.1-1.5,0.2-2.5c0.1-0.9,0.4-2,0.8-3.2c0.5-2,1.2-4,2.2-6c0.9-2,1.8-3.9,2.7-5.9c0.3-0.7,0.7-1.4,1.1-2.2
					c0.4-0.7,0.9-1.4,1.3-2.2c0.3-0.4,0.6-0.8,0.9-1.1c0.3-0.4,0.7-0.7,1-1c1.2-1.3,3-1.8,5.2-1.4c0.5,0.1,1.1,0.2,1.7,0.2
					c0.6,0,1.2,0.1,1.8,0.2c0.8,0.1,1.4,0.3,1.9,0.6C112.9,49.8,114.4,50.5,116.1,50.9z M102.9,63.9c4.6-4.6,7.6-8.5,8.8-11.5
					c-1.3-0.4-2.1-0.6-2.5-0.5c-0.4,0-0.9,0.4-1.5,1.1c-1.4,1.5-2.6,3.1-3.4,4.8c-0.9,1.7-1.5,3.5-1.9,5.3c0,0.1,0,0.3,0.1,0.4
					C102.7,63.6,102.8,63.7,102.9,63.9z"/>
				<path class="st1" d="M143.5,82.3c1.3-1,2.7-2.4,4.3-4.2c1.5-1.8,2.9-3.5,4-5c0.1,2.7-0.2,5-0.9,6.8c-0.7,1.9-1.6,3.4-2.6,4.5
					c-1.8,1.6-3.6,2.3-5.3,1.9c-1.7-0.4-3.4-1.3-5.1-2.7c-0.8-0.6-1.2-1.3-1.4-2.3c-0.3-1.7-0.6-3.4-0.7-5c-0.2-1.6,0.2-3.2,1-4.7
					l2.7-5.6c0.5-1,0.8-2.2,1.1-3.3c0.3-1.2,0.2-2.6-0.1-4.1c-0.5,0.5-1,0.9-1.4,1.2c-0.4,0.3-0.7,0.6-1,0.9
					c-2.3,3.5-4.6,7.1-6.9,10.6c-2.3,3.5-4.3,7.3-6,11.2c-0.3,0.5-0.5,1-0.8,1.6c-0.3,0.5-0.6,1-0.9,1.6c-1.8,0.1-3.3-0.4-4.6-1.4
					c-1.3-1-1.9-2.3-2-4c-0.1-1.1,0-2.7,0.2-4.9c0.2-2.1,0.4-4.3,0.7-6.4c0.3-2.6,0.6-5.2,1-8.1c0.3-0.3,0.5-0.6,0.5-1.1
					c0-0.5,0-0.9,0.1-1.4c0-0.3,0-0.6,0-1.1c0-0.5,0.1-1,0.1-1.4c0.1-0.5,0.2-0.9,0.3-1.3c0.1-0.4,0.3-0.7,0.4-0.8
					c0.1-0.1,0.5-0.2,1-0.2c0.6,0,1.1,0,1.8,0.2c0.6,0.2,1.2,0.4,1.7,0.7c0.5,0.3,0.8,0.7,0.9,1.3l0.2,3.8c-0.3,0.8-0.4,1.7-0.3,2.6
					c0.1,0.9,0.1,1.9,0,2.8c-0.1,0.8-0.3,1.6-0.4,2.3c-0.2,0.8-0.3,1.5-0.4,2.3l0.5,0.4c0.3-0.3,0.5-0.5,0.8-0.6
					c0.3-0.2,0.5-0.4,0.7-0.7c1.5-2.3,3.2-4.4,5.1-6.4c1.9-2,3.8-3.9,5.9-5.6c0.9-0.8,2-1.3,3.2-1.7c0.9-0.2,1.7-0.1,2.2,0.2
					c0.6,0.4,1.2,0.9,1.8,1.7c0.7,0.9,1.2,1.8,1.3,2.7c0.2,0.9,0.1,1.9-0.1,3c-0.5,2.4-1,4.8-1.3,7.2c-0.4,2.5-1,4.8-1.8,7.1
					c-0.3,0.7-0.5,1.5-0.6,2.4C142,80.5,142.5,81.4,143.5,82.3z"/>
			</g>
			<g>
				<g>
					<path class="st2" d="M38.9,120.5h3.7V93.6h-3.7v-0.7h10.4c4.7,0,8,2.1,8,7.7c0,5.8-3.4,8-8.4,8h-5.4v11.9h4.6v0.7h-9.2V120.5z
						 M43.5,107.9h5.2c1.7,0,7.8-0.3,7.8-7.2c0-4.9-2.7-7.1-8-7.1h-5V107.9z"/>
					<path class="st2" d="M57.8,120.5h3.8V93.6h-3.8v-0.7h19v8.4h-0.9v-7.7H62.4v12.8h8.1v-5.2h0.9v11.3h-0.9v-5.4h-8.1v13.4H76v-8
						h0.9v8.7H57.8V120.5z"/>
					<path class="st2" d="M78.6,120.5h2.3l9.8-27.7h1.5l9.7,27.7h2.2v0.7H97v-0.7h4l-3.6-10.3h-12l-3.6,10.3h4v0.7h-7.1V120.5z
						 M97.1,109.5l-5.7-16.2h-0.1l-5.7,16.2H97.1z"/>
					<path class="st2" d="M125,92.9v9.7h-0.9c-0.3-5.5-3.2-9.4-8.4-9.4c-5.2,0-10.1,4-10.1,13.6c0,6.3,2.6,13.9,10.1,13.9
						c4.7,0,8.3-3.2,8.6-8.6h0.9c-0.4,5.6-3.6,9.5-9.4,9.5c-7.1,0-11-6-11-15c0-7.1,3.1-14.3,11.1-14.3c3.1,0,6.8,1.3,8.3,6h0.1
						v-5.5H125z"/>
					<path class="st2" d="M126.7,120.5h3.8V93.6h-3.8v-0.7h8.4v0.7h-3.8v12.8h15.7V93.6h-3.8v-0.7h8.4v0.7H148v26.9h3.8v0.7h-8.4
						v-0.7h3.8v-13.4h-15.7v13.4h3.8v0.7h-8.4V120.5z"/>
				</g>
			</g>
		</g>
		<path class="st3" d="M39.7,139.4h0.5v0.2c0,2.3,1.4,4,3.7,4c3.2,0,3.8-2.1,3.8-3c0-1.8-1.2-2.5-2.7-2.6l-1.8-0.2
			c-1.7-0.2-3.3-0.9-3.3-3.1c0-2.6,1.9-3.7,4-3.7c1.6,0,2.8,0.6,3.5,1.9h0v-1.6H48v4.1h-0.5v-0.4c0-2.2-1.5-3.4-3.6-3.4
			c-2.5,0-3.5,1.5-3.5,3c0,1.7,1.2,2.4,2.5,2.6l1.9,0.3c2.3,0.3,3.4,1.3,3.4,3.2c0,2.1-1.5,3.6-4.3,3.6c-1.6,0-3-0.5-3.7-2.2h-0.1
			v1.9h-0.5V139.4z"/>
		<path class="st3" d="M60.4,143.4h2.1v0.4h-2.6v-2.3h0c-0.8,1.6-2.1,2.6-3.9,2.6c-2.2,0-3.9-1.2-3.9-4.1v-8.3h-2.1v-0.4h2.6v8.5
			c0,2.8,1.3,3.9,3.6,3.9c2.1,0,3.7-1.9,3.7-4.5v-7.4h-2.1v-0.4h2.6V143.4z"/>
		<path class="st3" d="M65.7,131.7h-2.1v-0.4h2.6v2.7h0c0.7-1.9,2.2-3,4.2-3c2.8,0,5.1,2.3,5.1,6.6c0,4.3-2.3,6.6-5.1,6.6
			c-2.4,0-3.8-1.5-4.2-2.8h0v6.2h2.1v0.4h-4.6v-0.4h2V131.7z M66.3,138.5c0,4.3,2.5,5.1,4.2,5.1c3.1,0,4.6-2.7,4.6-6
			c0-3.3-1.5-6-4.6-6c-1.7,0-4.2,0.9-4.2,5.5V138.5z"/>
		<path class="st3" d="M78.2,137.5c0,3.3,1.4,6.1,4.6,6.1c2.6,0,3.7-1.6,4.2-3.4h0.5c-0.6,2.8-2.5,4-4.7,4c-2.9,0-5.1-2.2-5.1-6.6
			c0-4.5,2.2-6.6,5.1-6.6c1.8,0,4.9,1,4.9,6.5H78.2z M87.1,137.1c0-2.7-1.3-5.6-4.4-5.6c-3,0-4.4,2.5-4.5,5.6H87.1z"/>
		<path class="st3" d="M89.4,143.4h2.1v-11.7h-2.1v-0.4h2.6v2.2h0c0.4-1.5,2-2.5,3.3-2.5c0.4,0,0.8,0.1,1.2,0.2v0.5
			c-0.1,0-0.3-0.1-0.5-0.1c-0.2-0.1-0.4-0.1-0.7-0.1c-1.9,0-3.4,1.6-3.4,4.1v7.8h2.4v0.4h-5V143.4z"/>
		<path class="st3" d="M97.8,143.4h2v-11.7h-2.2v-0.4h2.2V130c0-3.1,1.6-4,3.1-4c0.8,0,1.3,0.2,1.5,0.3v0.5
			c-0.5-0.2-0.9-0.3-1.5-0.3c-1.6,0-2.5,1.3-2.5,3.2v1.5h2.8v0.4h-2.8v11.7h2.4v0.4h-4.9V143.4z"/>
		<path class="st3" d="M110,144.1c-2.9,0-5.1-2.2-5.1-6.6c0-4.4,2.3-6.6,5.1-6.6c2.9,0,5.1,2.2,5.1,6.6
			C115.2,141.9,113,144.1,110,144.1z M110,131.5c-2.7,0-4.6,2.1-4.6,6c0,3.3,1.3,6.1,4.6,6.1c3.3,0,4.6-2.7,4.6-6.1
			C114.6,134.2,113.3,131.5,110,131.5z"/>
		<path class="st3" d="M122.3,144.1c-2.9,0-5.1-2.2-5.1-6.6c0-4.4,2.3-6.6,5.1-6.6c2.9,0,5.1,2.2,5.1,6.6
			C127.4,141.9,125.2,144.1,122.3,144.1z M122.3,131.5c-2.7,0-4.6,2.1-4.6,6c0,3.3,1.3,6.1,4.6,6.1c3.3,0,4.6-2.7,4.6-6.1
			C126.9,134.2,125.5,131.5,122.3,131.5z"/>
		<path class="st3" d="M138.8,141.1L138.8,141.1c-0.7,1.9-2.3,3-4.2,3c-2.8,0-5.1-2.3-5.1-6.6c0-4.3,2.3-6.6,5.1-6.6
			c2.4,0,3.8,1.5,4.2,2.8h0v-7h-2.1v-0.4h2.6v17.1h2.1v0.4h-2.6V141.1z M138.8,136.6c0-4.3-2.5-5.1-4.2-5.1c-3.1,0-4.6,2.7-4.6,6
			c0,3.3,1.5,6.1,4.6,6.1c1.7,0,4.2-0.9,4.2-5.5V136.6z"/>
		<path class="st3" d="M143.2,139.4h0.5v0.2c0,2.3,1.4,4,3.7,4c3.2,0,3.8-2.1,3.8-3c0-1.8-1.3-2.5-2.7-2.6l-1.8-0.2
			c-1.7-0.2-3.3-0.9-3.3-3.1c0-2.6,1.9-3.7,4-3.7c1.6,0,2.8,0.6,3.5,1.9h0v-1.6h0.5v4.1h-0.5v-0.4c0-2.2-1.5-3.4-3.6-3.4
			c-2.5,0-3.5,1.5-3.5,3c0,1.7,1.2,2.4,2.5,2.6l1.9,0.3c2.3,0.3,3.4,1.3,3.4,3.2c0,2.1-1.5,3.6-4.3,3.6c-1.6,0-3-0.5-3.7-2.2h0v1.9
			h-0.5V139.4z"/>
	</g>
	<g>
		<g>
			<path class="st0" d="M40.7,6.7c0.7,2.8,1.6,5.6,2.8,8.4c9.4,22.1,31.2,34.4,51.1,30.1c-0.7-2.8-1.6-5.6-2.8-8.4
				C82.5,14.7,60.7,2.4,40.7,6.7z"/>
			<path class="st0" d="M111.9,1c1,1.4,1.9,3,2.6,4.7c5.6,13.2-1,29-15,37.4c-1-1.4-1.9-3-2.6-4.7C91.4,25.2,98,9.4,111.9,1z"/>
			<g>
				<path class="st1" d="M34.2,30.1c1.1,0,1.7,0.7,1.7,2c-0.1,1.1-0.1,2.2,0,3.2c0,1,0,2.1-0.1,3.2c-0.3,2.6-0.5,5.1-0.7,7.6
					c-0.2,2.5-0.5,5.1-0.8,7.6c-0.2,1.7-0.4,3.2-0.5,4.6c-0.1,1.4-0.3,2.8-0.4,4.3c-0.2,1.5-0.3,3-0.5,4.7c-0.2,1.7-0.5,3.6-0.8,5.8
					c-0.5,3.1-1.3,6.2-2.5,9.3c-1.2,3-2.8,5.7-4.8,8c-2,2.3-4.6,4-7.6,5.1c-3,1.1-6.6,1.4-10.8,0.6c-0.9-0.1-1.8-0.4-2.5-0.8
					C2.9,95,2.4,94.5,2.1,94c-0.3-0.5-0.4-1.1-0.2-1.7c0.2-0.6,0.7-1.2,1.7-1.8c2,0.2,3.6,0.2,4.9,0c1.3-0.2,2.4-0.6,3.4-1.1
					c0.9-0.5,1.8-1.1,2.5-1.8c0.7-0.7,1.4-1.4,2.2-2.2c1.6-1.6,2.9-3.3,3.9-5.2c0.9-1.9,1.7-3.7,2.2-5.5c0.5-1.8,0.9-3.5,1.2-5
					c0.3-1.5,0.5-2.8,0.7-3.7c0.1-1.5,0.2-3,0.3-4.5c0.2-1.5,0.3-3,0.3-4.5v-3.4c-0.6,1.3-1.1,2.3-1.5,3.1c-0.4,0.8-0.7,1.5-0.9,2.2
					c-0.5,1.8-0.9,3.4-1.4,4.7c-0.5,1.3-1.3,2.6-2.3,3.9c-1,1.8-2.1,3.4-3,4.6c-1,1.2-2.3,2.1-3.9,2.7c-1.2,0.5-2.5,0.4-3.9-0.1
					c-1.4-0.5-2.5-1.3-3.3-2.4c-2.2-2.9-3.4-5.9-3.7-9.1c-0.3-3.2-0.3-6.5,0-9.8c0.1-1.1,0.3-2.2,0.5-3.2c0.2-1,0.4-2.1,0.6-3.2
					l2-10.9c0.1-0.3,0.1-0.7,0.2-1c0.1-0.3,0.2-0.7,0.2-1c0.2-0.9,0.5-1.9,0.9-3c0.4-1.1,0.9-2.1,1.6-3.1c0.6-1,1.3-2,2.1-2.9
					c0.8-0.9,1.6-1.7,2.4-2.3c1.3-0.8,2.7-1.4,4.1-1.8c1.4-0.3,2.7-0.5,3.9-0.5c1.2,0,2.2,0,3.1,0.1c0.9,0.1,1.5,0.2,1.8,0.2
					c1,0,1.9,0.2,2.5,0.5c0.6,0.4,1.1,0.9,1.5,1.6c0.4,0.7,0.8,1.5,1.1,2.6c0.3,1,0.8,2.1,1.3,3.4c-0.3,0.3-0.6,0.6-0.8,0.8
					c-0.2,0.2-0.4,0.3-0.6,0.4c-0.1,0-0.1,0-0.1,0c0,0,0,0-0.1,0c0.9,0,1.7,0,2.7,0C32.8,30,33.6,30,34.2,30.1z M26.8,36.1
					c0.1-1,0.3-1.9,0.6-2.9c0.3-0.9,0.5-2,0.8-3.1c-0.1,0-0.2-0.1-0.2-0.2c-0.9-2.5-2-4.1-3.2-4.9c-1.2-0.8-2.5-1.1-3.7-0.9
					c-1.2,0.2-2.3,0.7-3.2,1.5c-0.9,0.8-1.4,1.6-1.6,2.2c-0.5,2.2-1,4.5-1.5,6.7c-0.5,2.3-0.9,4.5-1.2,6.8c-0.3,1.6-0.4,3.2-0.4,4.8
					c0,1.6-0.1,3.2-0.2,4.9c-0.1,0.9-0.2,1.7-0.3,2.5c-0.1,0.8-0.3,1.6-0.4,2.5c-0.1,1.4-0.1,2.9,0,4.3l1,8.5c0.3-0.5,0.6-0.8,0.7-1
					c0.2-0.2,0.3-0.4,0.4-0.6c1.7-3.9,3.4-7.7,5.1-11.5c1.7-3.8,3.4-7.6,5.1-11.5c0.7-1.3,1.1-2.6,1.4-4
					C26.3,38.9,26.5,37.5,26.8,36.1z"/>
				<path class="st1" d="M61.1,48.4c2.3-0.7,4.2-0.2,5.6,1.7c0.6,0.7,0.9,1.5,0.9,2.4c0,0.9-0.1,1.7-0.5,2.7c-0.6,1.5-1.2,3-1.8,4.6
					c-0.6,1.6-1.1,3.1-1.7,4.7c-0.2,0.5-0.6,1.3-1.1,2.3c-0.6,1-0.9,1.7-1.1,2.3v2.1c-0.4,0-0.8,0-1.2,0c-0.4,0-0.8-0.1-1.1-0.2
					c-1.7-0.5-2.8-1.2-3.2-2c-0.4-0.8-0.4-2.1,0.1-3.8c0.5-1.6,1.1-3.1,1.6-4.7c0.6-1.6,1.1-3.1,1.6-4.7l0.9-2.8
					c-0.7,0.2-1.3,0.5-1.6,0.9c-0.4,0.4-0.7,0.8-0.9,1.3c-1.8,2.8-3.5,5.7-4.9,8.7c-1.4,3-2.6,6.1-3.5,9.4c-0.5,1.8-1.1,3.6-1.7,5.4
					c-0.6,1.7-1.3,3.5-1.9,5.3c-0.3,0.7-0.5,1.5-0.4,2.2c0,0.8,0.3,1.5,0.8,2.2c-1.1,0.7-2.3,1.1-3.4,1.2c-1.2,0.1-2.3-0.1-3.2-0.6
					c-1-0.5-1.8-1.1-2.4-2.1c-0.6-0.9-1-2-1-3.3c-0.1-1,0-2.1,0.2-3.1c0.2-1,0.4-2,0.5-3.1l0.4-3.4c0.2-1.4,0.4-2.7,0.5-3.8
					c0.1-1.1,0.3-2.1,0.4-3.2c0.1-1,0.3-2.1,0.4-3.3c0.2-1.1,0.4-2.5,0.6-4.1c0.1-2.1,0.3-4.2,0.8-6.2c0.5-2.1,1-4.1,1.4-6.2
					c0.3-1.2,0.7-2,1.2-2.3c0.5-0.3,1.3-0.3,2.7-0.1c1.1,0.2,1.9,0.4,2.5,0.7c0.6,0.3,1.1,0.7,1.7,1.3c-1,3.4-1.8,6.8-2.4,10.3
					c-0.6,3.4-0.6,7-0.1,10.7l4-6.6c1.1-1.8,2.2-3.7,3.2-5.5c1-1.8,2.4-3.4,4.1-4.8c0.5-0.3,0.9-0.7,1.4-1
					C60,48.7,60.6,48.5,61.1,48.4z"/>
				<path class="st1" d="M90,50.9c1.5,0.5,2.1,1.3,1.8,2.5c-0.1,0.3-0.2,0.6-0.3,0.9c-0.1,0.3-0.2,0.6-0.4,0.9
					c-1.4,2.5-3.1,4.9-5,7.2c-1.9,2.3-4,4.5-6.4,6.6c-0.9,0.8-1.7,1.6-2.5,2.5c-0.8,0.9-1.5,1.7-2.1,2.7c-0.4,0.7-0.6,1.4-0.7,2.1
					c-0.1,0.8-0.1,1.5-0.1,2.2c0,1.1,0.4,2.3,1.3,3.6c0.9,1.3,1.9,2.3,3,3c0.5-0.4,1.2-0.9,2.1-1.5c0.9-0.6,1.6-1.2,2.1-1.6
					c2.1-1.9,4.2-3.6,6.3-5.1c2.1-1.5,3.7-2.8,4.7-3.9c-0.1,0.7-0.3,1.4-0.5,2.2c-0.1,0.6-0.3,1.2-0.5,2c-0.2,0.7-0.5,1.3-0.8,1.9
					c-1,1.7-2.3,3.2-3.8,4.4c-1.5,1.2-3.2,2.5-5.1,3.9c-1.1,0.8-2.2,1.2-3.4,1.2c-1.1,0-2.5-0.2-4-0.6c-2.2-0.6-4.3-1.7-6.1-3.2
					c-1.8-1.6-3.1-3.3-3.9-5.3c-0.1-0.3-0.2-0.5-0.2-0.8c0-0.3-0.1-0.7-0.2-1.1c-0.1-0.7-0.1-1.3-0.2-2c-0.1-0.7-0.1-1.3,0-2.1
					c0-0.7,0.1-1.5,0.2-2.5c0.1-0.9,0.4-2,0.8-3.2c0.5-2,1.2-4,2.2-6c0.9-2,1.8-3.9,2.7-5.9c0.3-0.7,0.7-1.4,1.1-2.2
					c0.4-0.7,0.9-1.4,1.3-2.2c0.3-0.4,0.6-0.8,0.9-1.1c0.3-0.4,0.7-0.7,1-1c1.2-1.3,3-1.8,5.2-1.4c0.5,0.1,1.1,0.2,1.7,0.2
					c0.6,0,1.2,0.1,1.8,0.2c0.8,0.1,1.4,0.3,1.9,0.6C86.9,49.8,88.4,50.5,90,50.9z M76.9,63.9c4.6-4.6,7.6-8.5,8.8-11.5
					c-1.3-0.4-2.1-0.6-2.5-0.5c-0.4,0-0.9,0.4-1.5,1.1c-1.4,1.5-2.6,3.1-3.4,4.8c-0.9,1.7-1.5,3.5-1.9,5.3c0,0.1,0,0.3,0.1,0.4
					C76.6,63.6,76.8,63.7,76.9,63.9z"/>
				<path class="st1" d="M116.1,50.9c1.5,0.5,2.1,1.3,1.8,2.5c-0.1,0.3-0.2,0.6-0.3,0.9c-0.1,0.3-0.2,0.6-0.4,0.9
					c-1.4,2.5-3.1,4.9-5,7.2c-1.9,2.3-4,4.5-6.4,6.6c-0.9,0.8-1.7,1.6-2.5,2.5c-0.8,0.9-1.5,1.7-2.1,2.7c-0.4,0.7-0.6,1.4-0.7,2.1
					c-0.1,0.8-0.1,1.5-0.1,2.2c0,1.1,0.4,2.3,1.3,3.6c0.9,1.3,1.9,2.3,3,3c0.5-0.4,1.2-0.9,2.1-1.5c0.9-0.6,1.6-1.2,2.1-1.6
					c2.1-1.9,4.2-3.6,6.3-5.1c2.1-1.5,3.7-2.8,4.7-3.9c-0.1,0.7-0.3,1.4-0.5,2.2c-0.1,0.6-0.3,1.2-0.5,2c-0.2,0.7-0.5,1.3-0.8,1.9
					c-1,1.7-2.3,3.2-3.8,4.4c-1.5,1.2-3.2,2.5-5.1,3.9c-1.1,0.8-2.2,1.2-3.4,1.2c-1.1,0-2.5-0.2-4-0.6c-2.2-0.6-4.3-1.7-6.1-3.2
					c-1.8-1.6-3.1-3.3-3.9-5.3c-0.1-0.3-0.2-0.5-0.2-0.8c0-0.3-0.1-0.7-0.2-1.1c-0.1-0.7-0.1-1.3-0.2-2c-0.1-0.7-0.1-1.3,0-2.1
					c0-0.7,0.1-1.5,0.2-2.5c0.1-0.9,0.4-2,0.8-3.2c0.5-2,1.2-4,2.2-6c0.9-2,1.8-3.9,2.7-5.9c0.3-0.7,0.7-1.4,1.1-2.2
					c0.4-0.7,0.9-1.4,1.3-2.2c0.3-0.4,0.6-0.8,0.9-1.1c0.3-0.4,0.7-0.7,1-1c1.2-1.3,3-1.8,5.2-1.4c0.5,0.1,1.1,0.2,1.7,0.2
					c0.6,0,1.2,0.1,1.8,0.2c0.8,0.1,1.4,0.3,1.9,0.6C112.9,49.8,114.4,50.5,116.1,50.9z M102.9,63.9c4.6-4.6,7.6-8.5,8.8-11.5
					c-1.3-0.4-2.1-0.6-2.5-0.5c-0.4,0-0.9,0.4-1.5,1.1c-1.4,1.5-2.6,3.1-3.4,4.8c-0.9,1.7-1.5,3.5-1.9,5.3c0,0.1,0,0.3,0.1,0.4
					C102.7,63.6,102.8,63.7,102.9,63.9z"/>
				<path class="st1" d="M143.5,82.3c1.3-1,2.7-2.4,4.3-4.2c1.5-1.8,2.9-3.5,4-5c0.1,2.7-0.2,5-0.9,6.8c-0.7,1.9-1.6,3.4-2.6,4.5
					c-1.8,1.6-3.6,2.3-5.3,1.9c-1.7-0.4-3.4-1.3-5.1-2.7c-0.8-0.6-1.2-1.3-1.4-2.3c-0.3-1.7-0.6-3.4-0.7-5c-0.2-1.6,0.2-3.2,1-4.7
					l2.7-5.6c0.5-1,0.8-2.2,1.1-3.3c0.3-1.2,0.2-2.6-0.1-4.1c-0.5,0.5-1,0.9-1.4,1.2c-0.4,0.3-0.7,0.6-1,0.9
					c-2.3,3.5-4.6,7.1-6.9,10.6c-2.3,3.5-4.3,7.3-6,11.2c-0.3,0.5-0.5,1-0.8,1.6c-0.3,0.5-0.6,1-0.9,1.6c-1.8,0.1-3.3-0.4-4.6-1.4
					c-1.3-1-1.9-2.3-2-4c-0.1-1.1,0-2.7,0.2-4.9c0.2-2.1,0.4-4.3,0.7-6.4c0.3-2.6,0.6-5.2,1-8.1c0.3-0.3,0.5-0.6,0.5-1.1
					c0-0.5,0-0.9,0.1-1.4c0-0.3,0-0.6,0-1.1c0-0.5,0.1-1,0.1-1.4c0.1-0.5,0.2-0.9,0.3-1.3c0.1-0.4,0.3-0.7,0.4-0.8
					c0.1-0.1,0.5-0.2,1-0.2c0.6,0,1.1,0,1.8,0.2c0.6,0.2,1.2,0.4,1.7,0.7c0.5,0.3,0.8,0.7,0.9,1.3l0.2,3.8c-0.3,0.8-0.4,1.7-0.3,2.6
					c0.1,0.9,0.1,1.9,0,2.8c-0.1,0.8-0.3,1.6-0.4,2.3c-0.2,0.8-0.3,1.5-0.4,2.3l0.5,0.4c0.3-0.3,0.5-0.5,0.8-0.6
					c0.3-0.2,0.5-0.4,0.7-0.7c1.5-2.3,3.2-4.4,5.1-6.4c1.9-2,3.8-3.9,5.9-5.6c0.9-0.8,2-1.3,3.2-1.7c0.9-0.2,1.7-0.1,2.2,0.2
					c0.6,0.4,1.2,0.9,1.8,1.7c0.7,0.9,1.2,1.8,1.3,2.7c0.2,0.9,0.1,1.9-0.1,3c-0.5,2.4-1,4.8-1.3,7.2c-0.4,2.5-1,4.8-1.8,7.1
					c-0.3,0.7-0.5,1.5-0.6,2.4C142,80.5,142.5,81.4,143.5,82.3z"/>
			</g>
			<g>
				<g>
					<path class="st2" d="M38.9,120.5h3.7V93.6h-3.7v-0.7h10.4c4.7,0,8,2.1,8,7.7c0,5.8-3.4,8-8.4,8h-5.4v11.9h4.6v0.7h-9.2V120.5z
						 M43.5,107.9h5.2c1.7,0,7.8-0.3,7.8-7.2c0-4.9-2.7-7.1-8-7.1h-5V107.9z"/>
					<path class="st2" d="M57.8,120.5h3.8V93.6h-3.8v-0.7h19v8.4h-0.9v-7.7H62.4v12.8h8.1v-5.2h0.9v11.3h-0.9v-5.4h-8.1v13.4H76v-8
						h0.9v8.7H57.8V120.5z"/>
					<path class="st2" d="M78.6,120.5h2.3l9.8-27.7h1.5l9.7,27.7h2.2v0.7H97v-0.7h4l-3.6-10.3h-12l-3.6,10.3h4v0.7h-7.1V120.5z
						 M97.1,109.5l-5.7-16.2h-0.1l-5.7,16.2H97.1z"/>
					<path class="st2" d="M125,92.9v9.7h-0.9c-0.3-5.5-3.2-9.4-8.4-9.4c-5.2,0-10.1,4-10.1,13.6c0,6.3,2.6,13.9,10.1,13.9
						c4.7,0,8.3-3.2,8.6-8.6h0.9c-0.4,5.6-3.6,9.5-9.4,9.5c-7.1,0-11-6-11-15c0-7.1,3.1-14.3,11.1-14.3c3.1,0,6.8,1.3,8.3,6h0.1
						v-5.5H125z"/>
					<path class="st2" d="M126.7,120.5h3.8V93.6h-3.8v-0.7h8.4v0.7h-3.8v12.8h15.7V93.6h-3.8v-0.7h8.4v0.7H148v26.9h3.8v0.7h-8.4
						v-0.7h3.8v-13.4h-15.7v13.4h3.8v0.7h-8.4V120.5z"/>
				</g>
			</g>
		</g>
		<path class="st3" d="M39.7,139.4h0.5v0.2c0,2.3,1.4,4,3.7,4c3.2,0,3.8-2.1,3.8-3c0-1.8-1.2-2.5-2.7-2.6l-1.8-0.2
			c-1.7-0.2-3.3-0.9-3.3-3.1c0-2.6,1.9-3.7,4-3.7c1.6,0,2.8,0.6,3.5,1.9h0v-1.6H48v4.1h-0.5v-0.4c0-2.2-1.5-3.4-3.6-3.4
			c-2.5,0-3.5,1.5-3.5,3c0,1.7,1.2,2.4,2.5,2.6l1.9,0.3c2.3,0.3,3.4,1.3,3.4,3.2c0,2.1-1.5,3.6-4.3,3.6c-1.6,0-3-0.5-3.7-2.2h-0.1
			v1.9h-0.5V139.4z"/>
		<path class="st3" d="M60.4,143.4h2.1v0.4h-2.6v-2.3h0c-0.8,1.6-2.1,2.6-3.9,2.6c-2.2,0-3.9-1.2-3.9-4.1v-8.3h-2.1v-0.4h2.6v8.5
			c0,2.8,1.3,3.9,3.6,3.9c2.1,0,3.7-1.9,3.7-4.5v-7.4h-2.1v-0.4h2.6V143.4z"/>
		<path class="st3" d="M65.7,131.7h-2.1v-0.4h2.6v2.7h0c0.7-1.9,2.2-3,4.2-3c2.8,0,5.1,2.3,5.1,6.6c0,4.3-2.3,6.6-5.1,6.6
			c-2.4,0-3.8-1.5-4.2-2.8h0v6.2h2.1v0.4h-4.6v-0.4h2V131.7z M66.3,138.5c0,4.3,2.5,5.1,4.2,5.1c3.1,0,4.6-2.7,4.6-6
			c0-3.3-1.5-6-4.6-6c-1.7,0-4.2,0.9-4.2,5.5V138.5z"/>
		<path class="st3" d="M78.2,137.5c0,3.3,1.4,6.1,4.6,6.1c2.6,0,3.7-1.6,4.2-3.4h0.5c-0.6,2.8-2.5,4-4.7,4c-2.9,0-5.1-2.2-5.1-6.6
			c0-4.5,2.2-6.6,5.1-6.6c1.8,0,4.9,1,4.9,6.5H78.2z M87.1,137.1c0-2.7-1.3-5.6-4.4-5.6c-3,0-4.4,2.5-4.5,5.6H87.1z"/>
		<path class="st3" d="M89.4,143.4h2.1v-11.7h-2.1v-0.4h2.6v2.2h0c0.4-1.5,2-2.5,3.3-2.5c0.4,0,0.8,0.1,1.2,0.2v0.5
			c-0.1,0-0.3-0.1-0.5-0.1c-0.2-0.1-0.4-0.1-0.7-0.1c-1.9,0-3.4,1.6-3.4,4.1v7.8h2.4v0.4h-5V143.4z"/>
		<path class="st3" d="M97.8,143.4h2v-11.7h-2.2v-0.4h2.2V130c0-3.1,1.6-4,3.1-4c0.8,0,1.3,0.2,1.5,0.3v0.5
			c-0.5-0.2-0.9-0.3-1.5-0.3c-1.6,0-2.5,1.3-2.5,3.2v1.5h2.8v0.4h-2.8v11.7h2.4v0.4h-4.9V143.4z"/>
		<path class="st3" d="M110,144.1c-2.9,0-5.1-2.2-5.1-6.6c0-4.4,2.3-6.6,5.1-6.6c2.9,0,5.1,2.2,5.1,6.6
			C115.2,141.9,113,144.1,110,144.1z M110,131.5c-2.7,0-4.6,2.1-4.6,6c0,3.3,1.3,6.1,4.6,6.1c3.3,0,4.6-2.7,4.6-6.1
			C114.6,134.2,113.3,131.5,110,131.5z"/>
		<path class="st3" d="M122.3,144.1c-2.9,0-5.1-2.2-5.1-6.6c0-4.4,2.3-6.6,5.1-6.6c2.9,0,5.1,2.2,5.1,6.6
			C127.4,141.9,125.2,144.1,122.3,144.1z M122.3,131.5c-2.7,0-4.6,2.1-4.6,6c0,3.3,1.3,6.1,4.6,6.1c3.3,0,4.6-2.7,4.6-6.1
			C126.9,134.2,125.5,131.5,122.3,131.5z"/>
		<path class="st3" d="M138.8,141.1L138.8,141.1c-0.7,1.9-2.3,3-4.2,3c-2.8,0-5.1-2.3-5.1-6.6c0-4.3,2.3-6.6,5.1-6.6
			c2.4,0,3.8,1.5,4.2,2.8h0v-7h-2.1v-0.4h2.6v17.1h2.1v0.4h-2.6V141.1z M138.8,136.6c0-4.3-2.5-5.1-4.2-5.1c-3.1,0-4.6,2.7-4.6,6
			c0,3.3,1.5,6.1,4.6,6.1c1.7,0,4.2-0.9,4.2-5.5V136.6z"/>
		<path class="st3" d="M143.2,139.4h0.5v0.2c0,2.3,1.4,4,3.7,4c3.2,0,3.8-2.1,3.8-3c0-1.8-1.3-2.5-2.7-2.6l-1.8-0.2
			c-1.7-0.2-3.3-0.9-3.3-3.1c0-2.6,1.9-3.7,4-3.7c1.6,0,2.8,0.6,3.5,1.9h0v-1.6h0.5v4.1h-0.5v-0.4c0-2.2-1.5-3.4-3.6-3.4
			c-2.5,0-3.5,1.5-3.5,3c0,1.7,1.2,2.4,2.5,2.6l1.9,0.3c2.3,0.3,3.4,1.3,3.4,3.2c0,2.1-1.5,3.6-4.3,3.6c-1.6,0-3-0.5-3.7-2.2h0v1.9
			h-0.5V139.4z"/>
	</g>
</g>
</svg>
